<svg width="61" height="84" viewBox="0 0 61 84" fill="none" xmlns="http://www.w3.org/2000/svg">
<g clip-path="url(#clip0_344_119)">
<path fill-rule="evenodd" clip-rule="evenodd" d="M40.6554 71.6445H20.3284C24.1886 76.7352 27.5064 80.69 29.2074 82.6685C29.5292 83.0419 29.9984 83.257 30.4921 83.257C30.9859 83.257 31.455 83.0419 31.7769 82.6685C33.4773 80.6903 36.795 76.7355 40.6554 71.6445Z" fill="#0B0B0B"/>
<path fill-rule="evenodd" clip-rule="evenodd" d="M0.0275879 30.9705C0.0275879 14.1718 13.6945 0.504883 30.4915 0.504883C47.2893 0.504883 60.9563 14.1718 60.958 30.9705C60.958 35.3522 60.062 39.5358 58.2937 43.4061C53.6915 53.4744 46.5412 63.8812 40.6538 71.6449H20.3303C14.4427 63.8808 7.29271 53.4738 2.69187 43.4061C0.924432 39.5358 0.0275879 35.3522 0.0275879 30.9705ZM14.6667 30.9696C14.6667 39.695 21.7661 46.7944 30.4915 46.7944C39.2177 46.7944 46.3171 39.695 46.3163 30.9696C46.3163 22.2434 39.2169 15.144 30.4915 15.144C21.7661 15.144 14.6667 22.2434 14.6667 30.9696Z" fill="#FFCA18"/>
<path d="M30.4925 51.8815C42.2012 51.8815 51.693 42.3897 51.693 30.681C51.693 18.9723 42.2012 9.48047 30.4925 9.48047C18.7838 9.48047 9.29199 18.9723 9.29199 30.681C9.29199 42.3897 18.7838 51.8815 30.4925 51.8815Z" fill="#FFCA18"/>
<path d="M45.8582 30.1227L30.8699 15.1519C30.6679 14.9494 30.3408 14.9494 30.1388 15.1519L15.15 30.1227C14.948 30.3252 14.9521 30.6485 15.15 30.8537C15.2512 30.9583 15.3835 31.0116 15.5147 31.0127V31.0148H19.1334V45.483C19.1334 45.6259 19.1913 45.7539 19.2848 45.8472C19.3783 45.9414 19.5074 46 19.65 46H26.8833C27.1685 46 27.3999 45.7679 27.3999 45.483V35.1499H33.5999V45.483C33.5999 45.7674 33.8313 46 34.1166 46H41.3498C41.635 46 41.8665 45.7679 41.8665 45.483V31.0148H45.5084C45.6438 31.0174 45.7713 30.964 45.8581 30.8542C46.0339 30.6288 46.0602 30.3252 45.8582 30.1227Z" fill="black"/>
</g>
<defs>
<clipPath id="clip0_344_119">
<rect width="61" height="84" fill="white"/>
</clipPath>
</defs>
</svg>
