<svg width="50" height="50" viewBox="0 0 50 50" fill="none" xmlns="http://www.w3.org/2000/svg">
<rect x="50" y="50" width="50" height="50" rx="5" transform="rotate(-180 50 50)" fill="#616161"/>
<path d="M40 25.0003L28.3333 36.667L28.3333 30.0003L11.3333 30.0003C10.8666 30.0003 10.6333 30.0003 10.455 29.9095C10.2982 29.8296 10.1707 29.7021 10.0908 29.5453C10 29.3671 10 29.1337 10 28.667L10 21.3337C10 20.8669 10 20.6336 10.0908 20.4553C10.1707 20.2985 10.2982 20.171 10.455 20.0911C10.6333 20.0003 10.8666 20.0003 11.3333 20.0003L28.3333 20.0003L28.3333 13.3337L40 25.0003Z" fill="black"/>
</svg>
