<svg width="68" height="68" viewBox="0 0 68 68" fill="none" xmlns="http://www.w3.org/2000/svg">
<circle cx="34" cy="34" r="34" fill="#FEEB10"/>
<path d="M21.6539 14.9144C21.0336 15.0439 20.4965 15.4783 20.1787 16.1261L20.0047 16.4767V34.538V52.5993L20.1863 52.9728C20.4132 53.4376 20.8066 53.8339 21.2454 54.0397L21.5934 54.1997H34.3783H47.1631L47.6019 53.9863C47.8894 53.8415 48.1239 53.651 48.2979 53.4148C48.8274 52.7213 48.7896 54.1921 48.7745 34.3856L48.7518 16.4767L48.5702 16.1109C48.3508 15.646 47.9423 15.2497 47.5035 15.0363L47.1631 14.8763L34.5674 14.8687C27.6378 14.861 21.8279 14.8839 21.6539 14.9144ZM47.0572 16.6367L47.2388 16.8348L47.2615 34.3322C47.269 43.9573 47.2615 51.9516 47.2388 52.0887C47.2161 52.2259 47.1253 52.4088 47.0421 52.4926C46.8983 52.6374 46.679 52.6374 34.3783 52.6374C22.1154 52.6374 21.8582 52.6374 21.7144 52.4926C21.6312 52.4088 21.548 52.1954 21.5177 52.0125C21.495 51.8296 21.4799 43.843 21.495 34.256L21.5177 16.8348L21.6993 16.6367L21.8809 16.4386H34.3783H46.8757L47.0572 16.6367Z" fill="black"/>
<path d="M24.8312 18.1913C24.1957 18.3208 23.6738 18.7476 23.356 19.403C23.1896 19.7459 23.182 19.8221 23.182 21.9255V24.0974L23.3863 24.4861C23.5981 24.89 23.9612 25.2558 24.3773 25.4844C24.6043 25.614 25.1868 25.6216 34.3783 25.6216H44.1371L44.4397 25.4539C44.818 25.2482 45.166 24.8824 45.3929 24.4404C45.5745 24.105 45.5745 24.0593 45.5745 21.9255C45.5745 19.8755 45.5669 19.7307 45.4156 19.403C45.2114 18.961 44.7726 18.519 44.3338 18.3132L43.9858 18.1532L34.5674 18.1379C29.3853 18.1379 25.0052 18.1608 24.8312 18.1913ZM43.9858 19.5783C44.3641 19.8755 44.4019 20.0965 44.3943 21.9026C44.3943 23.7697 44.3489 23.9983 43.9556 24.2651L43.6983 24.4404H34.3783H25.0582L24.8009 24.2651C24.6572 24.166 24.5059 23.9755 24.453 23.8307C24.3395 23.4954 24.3244 20.4775 24.4303 20.0812C24.4757 19.9288 24.6118 19.7154 24.7404 19.6088L24.9749 19.4106H34.3707H43.774L43.9858 19.5783Z" fill="black"/>
<path d="M24.5664 27.5114C24.105 27.6638 23.6511 28.0372 23.409 28.4869L23.182 28.8984L23.1593 30.5978C23.1291 32.4954 23.1896 32.8765 23.5981 33.3718C23.7267 33.5242 24.0369 33.7529 24.2941 33.8824L24.7556 34.1187H26.3215C28.0539 34.1187 28.3489 34.0653 28.8407 33.6538C28.992 33.5242 29.2113 33.2575 29.3324 33.067L29.5366 32.7088V30.8036C29.5366 28.9213 29.5366 28.8908 29.3475 28.525C29.113 28.0677 28.6364 27.6638 28.1674 27.519C27.7135 27.3818 24.9901 27.3818 24.5664 27.5114ZM27.8648 28.7384C28.3035 28.9213 28.3641 29.1804 28.3641 30.8036C28.3641 32.9146 28.3792 32.8993 26.3442 32.8993C24.3243 32.8993 24.3319 32.9069 24.3697 30.5978C24.3924 29.2032 24.3924 29.1727 24.5816 28.9746C24.6875 28.8603 24.8388 28.7384 24.922 28.7079C25.1868 28.5936 27.5849 28.6164 27.8648 28.7384Z" fill="black"/>
<path d="M32.5854 27.5114C32.1163 27.6638 31.67 28.0372 31.4279 28.4869L31.201 28.8984L31.1783 30.5978C31.148 32.5335 31.2085 32.8841 31.6549 33.4099C31.7986 33.5852 32.0936 33.8138 32.313 33.9205C32.6988 34.1187 32.7291 34.1187 34.3707 34.1187C35.9669 34.1187 36.0577 34.111 36.4284 33.9358C36.6326 33.8367 36.9277 33.6157 37.0865 33.4328C37.5404 32.8917 37.5934 32.6326 37.5934 30.7655C37.5934 28.8603 37.5404 28.5936 37.0411 28.0753C36.4662 27.4809 36.3376 27.4504 34.4917 27.4352C33.3872 27.4276 32.7745 27.4504 32.5854 27.5114ZM35.8837 28.7384C36.3225 28.9213 36.383 29.1804 36.383 30.8036C36.383 32.9146 36.3981 32.8993 34.3783 32.8993C32.366 32.8993 32.3735 32.9069 32.3735 30.7579C32.3735 28.6469 32.3811 28.6393 34.3631 28.6317C35.2709 28.6317 35.7021 28.6621 35.8837 28.7384Z" fill="black"/>
<path d="M40.6043 27.5116C40.1277 27.664 39.6586 28.0603 39.4317 28.4947L39.2199 28.8986V30.8114V32.7242L39.4468 33.0977C39.5981 33.3339 39.8402 33.5778 40.1277 33.7759L40.5816 34.0807L42.2761 34.1036L43.9707 34.1265L44.4473 33.8902C44.7121 33.7607 45.0298 33.532 45.1584 33.372C45.582 32.8614 45.6274 32.5642 45.5972 30.6361C45.5745 28.9367 45.5669 28.891 45.3778 28.5175C45.1433 28.0679 44.591 27.6107 44.1296 27.4964C43.6908 27.382 40.9674 27.3973 40.6043 27.5116ZM43.9102 28.7538C44.3414 28.9595 44.4019 29.1958 44.4019 30.7581C44.4019 32.9071 44.4095 32.8995 42.3972 32.8995C40.3849 32.8995 40.3924 32.9071 40.3924 30.7581C40.3924 28.6547 40.4076 28.6395 42.382 28.6319C43.3958 28.6319 43.7135 28.6547 43.9102 28.7538Z" fill="black"/>
<path d="M24.4832 35.7726C24.052 35.9174 23.5527 36.3822 23.3333 36.8242C23.1972 37.1062 23.182 37.2891 23.182 38.9962C23.182 40.8328 23.182 40.8709 23.3712 41.2367C23.6057 41.7016 24.0369 42.075 24.5135 42.235C24.8161 42.3417 25.1716 42.357 26.5333 42.3341L28.1901 42.3112L28.5532 42.0826C28.9844 41.8159 29.3853 41.3205 29.4988 40.9166C29.5366 40.7642 29.5745 39.8954 29.5745 38.9886C29.5745 37.0529 29.5215 36.8014 28.9693 36.2527C28.4322 35.704 28.1674 35.643 26.3669 35.6506C25.1792 35.6506 24.7631 35.6811 24.4832 35.7726ZM27.8799 36.9767C28.3036 37.1519 28.3641 37.3958 28.3641 39.0343C28.3641 41.1452 28.3792 41.13 26.3593 41.13C24.347 41.13 24.3546 41.1376 24.3546 38.9886C24.3546 36.8776 24.3622 36.87 26.3442 36.8623C27.2898 36.8623 27.6757 36.8928 27.8799 36.9767Z" fill="black"/>
<path d="M32.4946 35.7651C31.9877 35.9251 31.4355 36.4967 31.2766 37.0301C31.1102 37.6017 31.1177 40.4061 31.2842 40.9701C31.4355 41.4959 31.965 42.0446 32.487 42.2199C33.0241 42.4104 35.7324 42.4104 36.2695 42.2199C36.7612 42.0522 37.2983 41.5112 37.4648 41.0158C37.6539 40.4747 37.6539 37.5179 37.4648 36.9768C37.2983 36.4814 36.7612 35.9403 36.2695 35.7727C35.7626 35.5974 33.0544 35.5974 32.4946 35.7651ZM35.8988 36.9768C36.3225 37.1521 36.383 37.4035 36.383 38.9963C36.383 41.1377 36.3905 41.1301 34.3782 41.1301C32.366 41.1301 32.3735 41.1377 32.3735 38.9963C32.3735 36.8701 32.3735 36.8701 34.3631 36.8625C35.3087 36.8625 35.6946 36.893 35.8988 36.9768Z" fill="black"/>
<path d="M40.4984 35.7647C40.0671 35.9172 39.6359 36.3134 39.409 36.7554C39.2274 37.1136 39.2199 37.1898 39.1972 38.8664C39.1669 40.9316 39.2199 41.1755 39.7797 41.7395C40.3244 42.2882 40.5891 42.3491 42.3972 42.3491C44.2128 42.3491 44.47 42.2882 45.0147 41.7395C45.5518 41.1984 45.6123 40.9088 45.6123 38.996C45.6123 37.0755 45.5518 36.8012 45.0071 36.2525C44.4624 35.7038 44.1901 35.6428 42.3291 35.6504C41.2019 35.6504 40.7253 35.6809 40.4984 35.7647ZM43.9177 36.9764C44.3414 37.1517 44.4019 37.4032 44.4019 38.996C44.4019 41.1374 44.4095 41.1298 42.3972 41.1298C40.3849 41.1298 40.3924 41.1374 40.3924 38.996C40.3924 36.8698 40.3924 36.8698 42.382 36.8621C43.3277 36.8621 43.7135 36.8926 43.9177 36.9764Z" fill="black"/>
<path d="M24.4832 43.98C23.8629 44.2086 23.3787 44.7573 23.2199 45.4127C23.1669 45.6261 23.1442 46.3729 23.1593 47.4246L23.182 49.0935L23.4014 49.4974C23.53 49.7261 23.757 50.008 23.9083 50.13C24.4151 50.5339 24.6799 50.5796 26.3518 50.5796C28.1674 50.5796 28.4322 50.5186 28.9693 49.9699C29.5215 49.4212 29.5745 49.1697 29.5745 47.2341C29.5745 46.3272 29.5366 45.4584 29.4988 45.306C29.3853 44.9021 28.9844 44.4067 28.5532 44.14L28.1901 43.9114L26.4804 43.8961C25.1792 43.8809 24.7026 43.8961 24.4832 43.98ZM27.9102 45.2069C28.3187 45.4203 28.3641 45.6184 28.3641 47.2264C28.3641 49.3679 28.3716 49.3603 26.3518 49.3603C24.3697 49.3603 24.3546 49.345 24.3546 47.2417C24.3546 45.085 24.347 45.0926 26.3442 45.0926C27.4033 45.0926 27.7362 45.1155 27.9102 45.2069Z" fill="black"/>
<path d="M32.5021 43.9802C31.9196 44.1936 31.5262 44.6127 31.2917 45.2452C31.1026 45.7558 31.1026 48.6289 31.2917 49.2081C31.4582 49.7263 31.9953 50.2826 32.4946 50.4579C33.0241 50.6408 35.74 50.6332 36.2695 50.4503C36.7612 50.2826 37.2984 49.7415 37.4648 49.2462C37.6388 48.7356 37.6539 45.8473 37.4799 45.2757C37.3437 44.8109 37.0109 44.3917 36.5494 44.1174L36.1939 43.9116L34.4917 43.8964C33.1981 43.8811 32.7215 43.8964 32.5021 43.9802ZM35.9366 45.2148C36.3225 45.4129 36.383 45.6873 36.383 47.2267C36.383 49.3605 36.383 49.3605 34.4161 49.3605C32.3735 49.3605 32.366 49.3529 32.3811 47.2114C32.3887 46.4493 32.4114 45.733 32.4416 45.6263C32.4719 45.5196 32.608 45.3596 32.7442 45.2681C32.9863 45.1004 33.0771 45.0928 34.3556 45.0928C35.4374 45.0928 35.7551 45.1157 35.9366 45.2148Z" fill="black"/>
<path d="M40.521 43.9802C39.9234 44.2012 39.4392 44.727 39.2577 45.3596C39.1972 45.5653 39.182 46.236 39.1972 47.3791C39.2199 49.0328 39.2274 49.109 39.409 49.4672C39.6359 49.9244 40.0671 50.3055 40.5286 50.4579C41.0279 50.6332 43.7664 50.6332 44.2657 50.4579C44.7272 50.3055 45.1584 49.9244 45.3853 49.4672C45.5669 49.109 45.5745 49.0328 45.5972 47.3943C45.6274 45.4891 45.5669 45.1157 45.1584 44.6127C45.0298 44.4603 44.7575 44.2393 44.5683 44.1174L44.2128 43.9116L42.5106 43.8964C41.217 43.8811 40.7404 43.8964 40.521 43.9802ZM43.9556 45.2148C44.3414 45.4129 44.4019 45.6873 44.4019 47.2267C44.4019 49.3605 44.4019 49.3605 42.435 49.3605C40.3924 49.3605 40.3924 49.3605 40.3924 47.2419C40.3924 45.0852 40.3849 45.0928 42.382 45.0928C43.4563 45.0928 43.774 45.1157 43.9556 45.2148Z" fill="black"/>
</svg>
