<svg width="84" height="84" viewBox="0 0 84 84" fill="none" xmlns="http://www.w3.org/2000/svg">
<circle cx="42" cy="42" r="41.5" fill="#FFCA18" stroke="#FFCA18"/>
<path d="M19.6228 22.1238C18.3311 22.1629 18.2267 22.1759 17.8418 22.3388C16.7066 22.8209 15.7215 23.9153 15.4736 24.9707C15.4279 25.1596 15.3823 26.2411 15.3562 27.6352L15.317 29.9805L13.262 30.0196C10.9655 30.0587 10.7698 30.0912 10.3849 30.4756C9.95433 30.9056 9.91519 31.544 10.2871 32.0977C10.6067 32.5863 10.6067 32.5863 13.1184 32.6059L15.3496 32.6254L15.3366 35.3095L15.317 37.9935L13.1967 38.0261C10.9199 38.0652 10.7763 38.0847 10.4045 38.4365C9.77818 39.0163 9.9739 40.0652 10.7829 40.5082C10.9068 40.5798 11.4483 40.6059 13.1511 40.6189L15.3496 40.645V43.3095V45.974H14.0318C12.0746 45.9805 11.0308 46.0652 10.6589 46.2476C10.3197 46.417 10.0913 46.7492 10.0261 47.1922C9.96738 47.5701 10.0783 47.8437 10.4632 48.2736L10.7959 48.645H13.0597H15.3301L15.3692 51.0424C15.3953 53.2248 15.4149 53.4723 15.5388 53.8567C15.8324 54.7818 16.5305 55.6548 17.2873 56.0587C17.9005 56.3779 18.566 56.5277 19.7403 56.5929C20.3078 56.6189 20.7841 56.658 20.7906 56.671C20.8037 56.6841 20.8624 56.8925 20.9276 57.1466C21.2995 58.5603 22.8065 60.4235 24.1309 61.101C25.3704 61.7329 26.3556 61.9675 27.5494 61.9153C30.3808 61.785 32.9056 59.7785 33.7081 57.0228L33.819 56.658H41.465C45.673 56.658 50.5399 56.6385 52.2818 56.6124L55.4524 56.5733L55.6285 57.1531C55.8765 57.9544 56.1831 58.5733 56.6332 59.1727C57.5923 60.4626 58.9558 61.3746 60.4954 61.7525C61.3305 61.9609 62.707 61.9479 63.5682 61.7199C64.7621 61.4072 65.7733 60.8339 66.6214 59.9935C67.4239 59.1987 67.9197 58.3714 68.3176 57.1662L68.5264 56.5342L69.1592 56.3258C71.808 55.4593 73.6412 53.2964 73.8695 50.7818C73.9478 49.9284 73.9478 42.9447 73.876 42.1564C73.7847 41.2248 73.3215 40.43 72.4473 39.7004C71.9906 39.3225 71.56 39.114 70.3792 38.7101C69.3484 38.3649 68.409 37.9284 67.6391 37.4528C66.9802 37.0424 66.4453 36.5277 59.9735 30.1759C54.2389 24.5407 53.1299 23.4789 52.5949 23.0815C52.1513 22.7492 51.0031 22.2802 50.4029 22.189C49.9136 22.1108 22.0432 22.0521 19.6228 22.1238ZM50.566 24.8925C51.3097 25.2639 51.9425 25.8567 58.6035 32.4235C64.6773 38.4105 65.3753 39.0684 66.2952 39.6678C67.2477 40.2867 68.7026 40.9447 69.9552 41.316C70.6141 41.5114 70.8946 41.6678 71.0577 41.9414C71.3121 42.3583 71.3382 42.8339 71.3317 46.9772L71.3187 50.9447L70.9859 51.5961C70.5619 52.4235 69.9812 53.0554 69.2832 53.4528C69.0157 53.6091 68.7156 53.7394 68.6177 53.746C68.4612 53.759 68.4285 53.7199 68.2915 53.3486C67.2281 50.5603 65.1796 48.9577 62.3874 48.7427C61.063 48.6385 59.4646 49.0815 58.2707 49.8893C57.0442 50.7101 56.2027 51.8437 55.6677 53.3811L55.4524 53.987H44.6031C34.3278 53.987 33.7537 53.9805 33.7276 53.8697C33.7081 53.8111 33.6754 53.6417 33.6493 53.4984C33.5841 53.0554 32.9447 51.8502 32.475 51.2704C31.4442 49.9935 30.0873 49.1466 28.6259 48.873C27.7386 48.7036 26.2838 48.7622 25.4944 48.9968C23.9417 49.4593 22.539 50.4821 21.717 51.759C21.3647 52.2997 21.2734 52.4886 20.9929 53.3355L20.7841 53.9544H19.8773C18.8595 53.9544 18.703 53.9284 18.4224 53.6873C18.0506 53.3746 18.0114 53.0945 17.9723 50.7492L17.9462 48.645H18.5855C19.5315 48.6385 19.7468 48.5798 20.0926 48.2476C20.2491 48.0912 20.4253 47.8828 20.4775 47.785C20.6014 47.544 20.5884 47.101 20.4449 46.7818C20.2165 46.2736 19.7142 46.0521 18.6638 45.9935L17.9592 45.9544V43.2899V40.632H20.7189C23.9939 40.6254 25.0769 40.5668 25.3248 40.3844C25.6183 40.1694 25.8858 39.6678 25.8858 39.3355C25.8858 38.9186 25.6314 38.43 25.3248 38.2736C24.9268 38.0717 24.2287 38.0326 21.0451 38.0261H17.9592V35.3225V32.6189H23.5568C29.1413 32.6124 30.2699 32.5798 30.707 32.3974C31.0137 32.2736 31.2029 31.8958 31.2029 31.4267C31.2029 31.0359 31.0528 30.7036 30.7005 30.3127L30.4917 30.0847L24.2287 30.0391L17.9592 29.9935V27.7394V25.4919L18.3637 25.0815L18.7682 24.671H34.4453H50.1223L50.566 24.8925ZM28.3062 51.4528C29.8263 51.9219 30.968 53.0815 31.2094 54.4105C31.3007 54.9121 31.2485 56.1955 31.1115 56.6254C30.968 57.0815 30.6418 57.5701 30.1525 58.0717C29.337 58.8991 28.665 59.2183 27.5755 59.2964C26.3164 59.3877 25.3509 59.0359 24.4832 58.1629C23.6807 57.3551 23.2828 56.3779 23.2828 55.2248C23.2828 54.6776 23.3154 54.5407 23.5111 54.0196C24.0526 52.6059 25.0116 51.7525 26.473 51.3811C27.0928 51.2248 27.6408 51.2508 28.3062 51.4528ZM62.8767 51.4137C63.8031 51.6287 64.5468 52.1368 65.2253 53.0098C65.7668 53.7134 65.9755 54.3453 65.9755 55.329C65.9755 56.9381 65.1731 58.1824 63.5943 58.9903C63.1507 59.2183 63.118 59.2248 62.2634 59.2508C60.7499 59.2964 60.1105 59.0684 59.2232 58.189C58.3034 57.2769 57.9772 56.4365 58.0359 55.0945C58.0685 54.228 58.1664 53.8893 58.5708 53.2704C59.158 52.3583 60.1105 51.6352 60.9912 51.4202C61.4936 51.2964 62.3874 51.2964 62.8767 51.4137Z" fill="black"/>
<path d="M45.4577 27.5308C45.3142 27.596 45.1119 27.7393 45.0075 27.8566L44.8184 28.0585L44.7662 29.5699C44.7401 30.4038 44.714 32.5406 44.714 34.3126L44.7074 37.5374L45.0336 38.1888C45.7317 39.596 46.7233 40.3712 47.9825 40.5015C48.2826 40.5276 51.0553 40.5797 54.1346 40.6058L59.7452 40.6514L60.0909 40.28C60.6324 39.7133 60.7368 39.3419 60.5019 38.8338C60.3715 38.5536 60.0779 38.2865 59.7452 38.1497C59.5951 38.0846 58.2055 38.0585 54.0367 38.0194C50.9639 37.9934 48.387 37.9413 48.2108 37.9087C48.0151 37.8696 47.8194 37.7784 47.7019 37.6611C47.317 37.2898 47.304 37.2116 47.2453 32.8142C47.2192 30.6123 47.1735 28.6188 47.1539 28.3908C47.1148 28.0585 47.0756 27.9413 46.9386 27.811C46.5211 27.4201 45.9339 27.3093 45.4577 27.5308Z" fill="black"/>
<path d="M47.8911 43.6808C47.5584 44.0391 47.4475 44.215 47.3757 44.5277C47.2779 44.9772 47.6041 45.5505 48.0934 45.7916C48.3804 45.9349 48.4522 45.9414 50.1419 45.9414H51.8903L52.1187 45.6808C52.5688 45.1596 52.6993 44.7362 52.5297 44.2997C52.497 44.202 52.2948 43.9479 52.0926 43.7395L51.7272 43.3681H49.9527H48.1847L47.8911 43.6808Z" fill="black"/>
</svg>
