<svg width="84" height="84" viewBox="0 0 84 84" fill="none" xmlns="http://www.w3.org/2000/svg">
<circle cx="42" cy="42" r="41.5" fill="#FFCA18" stroke="#FFCA18"/>
<g clip-path="url(#clip0_110_257)">
<path d="M65.9118 29.3824C65.7466 28.768 65.3435 28.2443 64.792 27.9267C64.2402 27.6077 63.584 27.5213 62.9685 27.6866C62.3538 27.8522 61.83 28.2548 61.5125 28.8063L61.1126 29.5023C60.7326 29.2839 60.2471 29.4124 60.0249 29.7905L57.9932 33.2536L57.2972 32.8536C57.1129 32.747 56.8934 32.7181 56.6879 32.7736C56.4821 32.8294 56.3071 32.9646 56.2013 33.1497C55.9845 33.532 56.1166 34.0179 56.4974 34.2374L57.1933 34.6373L50.3945 46.4193L48.7147 50.9068L47.9148 52.4023C47.4465 53.217 47.4965 54.2297 48.0429 54.994L46.2432 57.2014L45.7394 55.938C45.5121 55.3748 44.986 54.9889 44.3811 54.9417C43.7757 54.894 43.1957 55.1932 42.8837 55.7138L42.5958 56.2016L42.324 53.0022C42.2615 52.2453 41.6753 51.6368 40.9215 51.5454C40.1673 51.4544 39.4534 51.9063 39.2124 52.6264L37.2448 58.5293C37.1073 58.9469 37.3323 59.3968 37.7486 59.5374C37.8267 59.5737 37.9107 59.5956 37.9966 59.601C38.3403 59.6022 38.6465 59.3831 38.7566 59.0574L40.7161 53.1545L40.9961 56.4016C41.0539 57.0944 41.5518 57.6705 42.2291 57.8275C42.9063 57.9845 43.607 57.6861 43.9635 57.0897L44.2596 56.6015L44.7556 57.8576C44.9661 58.3868 45.4422 58.7645 46.0058 58.8484C46.5694 58.9324 47.1349 58.7102 47.4911 58.2653L49.3548 55.906C49.561 55.9599 49.7735 55.9868 49.9867 55.986C50.844 55.9927 51.64 55.5412 52.0743 54.8019L52.8741 53.4661L55.9217 49.7629L62.7924 37.8368L63.4883 38.2367C63.6739 38.3429 63.809 38.5183 63.8641 38.7249C63.9195 38.93 63.8906 39.1487 63.7844 39.3326L60.5849 44.8758C60.4643 45.0578 60.4232 45.2812 60.4717 45.4945C60.5201 45.7073 60.6533 45.8913 60.8408 46.0034C61.0251 46.1104 61.2446 46.1393 61.45 46.0838C61.6558 46.028 61.8308 45.8928 61.9367 45.7077L65.1361 40.1645C65.4552 39.6126 65.5415 38.9565 65.3759 38.341C65.2103 37.7262 64.8077 37.2025 64.2562 36.885L63.5602 36.4851L65.5599 33.0216C65.7782 32.6416 65.6497 32.1565 65.272 31.9339L65.672 31.2379C65.9996 30.6775 66.0863 30.008 65.9118 29.3824ZM62.8963 29.6061C63.0021 29.421 63.1779 29.2855 63.3845 29.2304C63.5899 29.1797 63.807 29.2082 63.9922 29.3105C64.1777 29.4163 64.3128 29.5921 64.3683 29.7983C64.419 30.0037 64.3905 30.2209 64.2882 30.406L63.8883 31.102L62.4963 30.3021L62.8963 29.6061ZM51.9942 51.9387L51.5943 51.7067L50.4105 51.0185L51.5462 47.9792L54.0657 49.4348L51.9942 51.9387ZM49.5946 54.25C49.2568 54.0145 49.1529 53.5614 49.3548 53.2021L49.7547 52.5065L51.1463 53.3064L50.7464 53.9942C50.6343 54.1887 50.446 54.3269 50.2269 54.3758C50.0078 54.4242 49.7786 54.3789 49.5946 54.25ZM54.9777 48.1233L52.2102 46.5236L58.6091 35.4372L61.3766 37.0369L54.9777 48.1233ZM62.1765 35.6532L59.409 34.0534L61.0087 31.2859L63.7762 32.8857L62.1765 35.6532Z" fill="black"/>
<path d="M30.6217 53.85L27.7905 56.6738L26.0947 54.978C25.7827 54.6679 25.2788 54.6679 24.9668 54.978C24.8152 55.1283 24.7301 55.3326 24.7301 55.5458C24.7301 55.7591 24.8152 55.9637 24.9668 56.1137L26.6626 57.8095C26.9625 58.1071 27.3679 58.2739 27.7905 58.2735C28.2154 58.2758 28.6244 58.1091 28.9263 57.8095L31.7496 54.978C32.0214 54.6604 32.0031 54.1875 31.7078 53.8922C31.4122 53.5966 30.9392 53.5782 30.6217 53.85Z" fill="black"/>
<path d="M21.1995 56.0017C21.1995 59.757 24.2435 62.8006 27.9983 62.8006C31.7531 62.8006 34.7971 59.757 34.7971 56.0017C34.7971 55.56 34.439 55.2019 33.9973 55.2019C33.5556 55.2019 33.1974 55.56 33.1974 56.0017C33.1974 58.8731 30.8697 61.2009 27.9983 61.2009C25.1269 61.2009 22.7992 58.8731 22.7992 56.0017C22.7992 53.1304 25.1269 50.8026 27.9983 50.8026C29.1239 50.7995 30.2194 51.1647 31.1177 51.8427C31.4711 52.1079 31.9726 52.036 32.2374 51.6826C32.5026 51.3291 32.4311 50.828 32.0777 50.5628C30.0175 49.0178 27.2609 48.7694 24.9578 49.9208C22.6543 51.0725 21.1995 53.4268 21.1995 56.0017Z" fill="black"/>
<path d="M46.7951 24.4069C47.2368 24.4069 47.595 24.0491 47.595 23.607C47.595 23.1653 47.2368 22.8071 46.7951 22.8071H25.9986C25.5569 22.8071 25.1988 23.1653 25.1988 23.607V26.8064C25.1988 27.2486 25.5569 27.6063 25.9986 27.6063H46.7951C47.2368 27.6063 47.595 27.2486 47.595 26.8064C47.595 26.3647 47.2368 26.0066 46.7951 26.0066H26.7985V24.4069H46.7951Z" fill="black"/>
<path d="M28.3982 29.2061C27.9565 29.2061 27.5984 29.5642 27.5984 30.0059C27.5984 30.448 27.9565 30.8058 28.3982 30.8058H44.3955C44.8372 30.8058 45.1954 30.448 45.1954 30.0059C45.1954 29.5642 44.8372 29.2061 44.3955 29.2061H28.3982Z" fill="black"/>
<path d="M49.1947 34.8052H31.5977C31.156 34.8052 30.7978 35.1633 30.7978 35.605C30.7978 36.0472 31.156 36.4049 31.5977 36.4049H49.1947C49.6364 36.4049 49.9945 36.0472 49.9945 35.605C49.9945 35.1633 49.6364 34.8052 49.1947 34.8052Z" fill="black"/>
<path d="M41.196 40.4044C41.196 39.9626 40.8379 39.6045 40.3962 39.6045H24.3989C23.9572 39.6045 23.599 39.9626 23.599 40.4044C23.599 40.8465 23.9572 41.2042 24.3989 41.2042H40.3962C40.8379 41.2042 41.196 40.8465 41.196 40.4044Z" fill="black"/>
<path d="M49.1947 39.6045H43.5956C43.1539 39.6045 42.7958 39.9626 42.7958 40.4044C42.7958 40.8465 43.1539 41.2042 43.5956 41.2042H49.1947C49.6364 41.2042 49.9945 40.8465 49.9945 40.4044C49.9945 39.9626 49.6364 39.6045 49.1947 39.6045Z" fill="black"/>
<path d="M32.3975 45.2032C32.8393 45.2032 33.1974 44.8455 33.1974 44.4034C33.1974 43.9617 32.8393 43.6035 32.3975 43.6035H24.3989C23.9572 43.6035 23.599 43.9617 23.599 44.4034C23.599 44.8455 23.9572 45.2032 24.3989 45.2032H32.3975Z" fill="black"/>
<path d="M35.597 45.2032H41.1961C41.6378 45.2032 41.9959 44.8455 41.9959 44.4034C41.9959 43.9617 41.6378 43.6035 41.1961 43.6035H35.597C35.1553 43.6035 34.7971 43.9617 34.7971 44.4034C34.7971 44.8455 35.1553 45.2032 35.597 45.2032Z" fill="black"/>
<path d="M53.9939 54.8015C53.5521 54.8015 53.194 55.1597 53.194 55.6014V63.6001C53.194 64.0422 52.8359 64.3999 52.3941 64.3999H20.3996C19.9579 64.3999 19.5997 64.0422 19.5997 63.6001V20.4074C19.5997 19.9657 19.9579 19.6075 20.3996 19.6075H52.3941C52.8359 19.6075 53.194 19.9657 53.194 20.4074V35.4291C53.194 35.8708 53.5521 36.2289 53.9939 36.2289C54.4356 36.2289 54.7937 35.8708 54.7937 35.4291V20.4074C54.7937 19.0822 53.7193 18.0078 52.3941 18.0078H20.3996C19.0744 18.0078 18 19.0822 18 20.4074V63.6001C18 64.9256 19.0744 65.9996 20.3996 65.9996H52.3941C53.7193 65.9996 54.7937 64.9256 54.7937 63.6001V55.6014C54.7937 55.1597 54.4356 54.8015 53.9939 54.8015Z" fill="black"/>
</g>
<defs>
<clipPath id="clip0_110_257">
<rect width="48" height="48" fill="white" transform="translate(18 18)"/>
</clipPath>
</defs>
</svg>
