<svg width="68" height="68" viewBox="0 0 68 68" fill="none" xmlns="http://www.w3.org/2000/svg">
<circle cx="34" cy="34" r="34" fill="#FEEB10"/>
<path d="M26.1328 29.0273C25.7231 29.0273 25.3906 29.3598 25.3906 29.7695C25.3906 30.1792 25.7231 30.5117 26.1328 30.5117C26.5425 30.5117 26.875 30.1792 26.875 29.7695C26.875 29.3598 26.5425 29.0273 26.1328 29.0273Z" fill="black"/>
<path d="M52.2578 47.0625H49.5859V18.7109C49.5859 16.6647 47.9212 15 45.875 15H18.7109C16.6647 15 15 16.6647 15 18.7109V21.6797C15 22.0895 15.3324 22.4219 15.7422 22.4219H20.9375V49.2891C20.9375 51.3353 22.6022 53 24.6484 53H49.2891C51.3353 53 53 51.3353 53 49.2891V47.8047C53 47.3949 52.6676 47.0625 52.2578 47.0625ZM20.9375 20.9375H16.4844V18.7109C16.4844 17.4832 17.4832 16.4844 18.7109 16.4844C19.3053 16.4844 19.8643 16.7161 20.285 17.1368C20.7058 17.5576 20.9375 18.1166 20.9375 18.7109V20.9375ZM26.875 47.8047V49.2891C26.875 50.5168 25.8762 51.5156 24.6484 51.5156C23.4207 51.5156 22.4219 50.5168 22.4219 49.2891V21.6797V18.7109C22.4219 17.8972 22.1609 17.1235 21.6793 16.4844H45.875C47.1027 16.4844 48.1016 17.4832 48.1016 18.7109V47.0625H45.1328V44.4415C46.0798 43.5976 46.6172 42.4097 46.6172 41.125C46.6172 38.6695 44.6195 36.6719 42.1641 36.6719C40.8482 36.6719 39.6644 37.246 38.8485 38.1562H26.1328C25.723 38.1562 25.3906 38.4886 25.3906 38.8984C25.3906 39.3083 25.723 39.6406 26.1328 39.6406H37.9662C37.8015 40.1052 37.7109 40.6047 37.7109 41.125C37.7109 41.6407 37.7982 42.1406 37.9629 42.6094H26.1328C25.723 42.6094 25.3906 42.9417 25.3906 43.3516C25.3906 43.7614 25.723 44.0938 26.1328 44.0938H38.4531C38.5699 44.0938 38.6799 44.066 38.7782 44.018C38.9066 44.1672 39.046 44.3085 39.1953 44.4415V47.0625H27.6172C27.2074 47.0625 26.875 47.3949 26.875 47.8047ZM42.1641 44.0938C41.5163 44.0938 40.9012 43.8888 40.3852 43.501C40.3844 43.5004 40.3836 43.4998 40.3827 43.4992C39.6281 42.9325 39.1953 42.0673 39.1953 41.125C39.1953 39.488 40.5271 38.1562 42.1641 38.1562C43.801 38.1562 45.1328 39.488 45.1328 41.125C45.1328 42.0674 44.6999 42.9328 43.9444 43.4999C43.4281 43.8884 42.8124 44.0938 42.1641 44.0938ZM43.6484 45.3246V48.732L42.5758 48.0169C42.3265 47.8506 42.0017 47.8506 41.7524 48.0169L40.6797 48.732V45.3245C41.1513 45.4914 41.6508 45.5781 42.1641 45.5781C42.6774 45.5781 43.1769 45.4914 43.6484 45.3246ZM51.5156 49.2891C51.5156 50.5168 50.5168 51.5156 49.2891 51.5156H27.6152C28.0822 50.8949 28.3594 50.1239 28.3594 49.2891V48.5469H39.1953V50.1188C39.1953 50.3925 39.346 50.644 39.5873 50.7731C39.8287 50.9024 40.1215 50.8881 40.3492 50.7363L42.1641 49.5264L43.9789 50.7363C44.1031 50.8192 44.2466 50.861 44.3907 50.861C44.5107 50.861 44.6311 50.8319 44.7409 50.7731C44.9821 50.644 45.1328 50.3925 45.1328 50.1188V48.5469H51.5156V49.2891Z" fill="black"/>
<path d="M38.4531 19.4531H30.5859C30.1761 19.4531 29.8438 19.7855 29.8438 20.1953C29.8438 20.6051 30.1761 20.9375 30.5859 20.9375H38.4531C38.863 20.9375 39.1953 20.6051 39.1953 20.1953C39.1953 19.7855 38.863 19.4531 38.4531 19.4531Z" fill="black"/>
<path d="M44.3906 29.0273H29.1016C28.6917 29.0273 28.3594 29.3597 28.3594 29.7695C28.3594 30.1794 28.6917 30.5117 29.1016 30.5117H44.3906C44.8005 30.5117 45.1328 30.1794 45.1328 29.7695C45.1328 29.3597 44.8005 29.0273 44.3906 29.0273Z" fill="black"/>
<path d="M44.3906 33.7031H26.1328C25.723 33.7031 25.3906 34.0355 25.3906 34.4453C25.3906 34.8551 25.723 35.1875 26.1328 35.1875H44.3906C44.8005 35.1875 45.1328 34.8551 45.1328 34.4453C45.1328 34.0355 44.8005 33.7031 44.3906 33.7031Z" fill="black"/>
<path d="M44.3906 24.1289H26.1328C25.723 24.1289 25.3906 24.4613 25.3906 24.8711C25.3906 25.2809 25.723 25.6133 26.1328 25.6133H44.3906C44.8005 25.6133 45.1328 25.2809 45.1328 24.8711C45.1328 24.4613 44.8005 24.1289 44.3906 24.1289Z" fill="black"/>
</svg>
