<svg width="35" height="35" viewBox="0 0 35 35" fill="none" xmlns="http://www.w3.org/2000/svg">
<g clip-path="url(#clip0_88_77)">
<path d="M34.9356 8.29954C34.8152 7.85158 34.5213 7.46969 34.1192 7.23816C33.7168 7.00549 33.2383 6.94255 32.7895 7.06302C32.3413 7.18377 31.9594 7.47738 31.7279 7.87949L31.4362 8.38697C31.1592 8.22778 30.8052 8.32147 30.6431 8.59714L29.1617 11.1223L28.6542 10.8307C28.5198 10.7529 28.3597 10.7319 28.2099 10.7723C28.0599 10.813 27.9323 10.9116 27.8551 11.0466C27.6971 11.3254 27.7933 11.6796 28.071 11.8397L28.5785 12.1313L23.621 20.7223L22.3961 23.9945L21.8129 25.0849C21.4714 25.6789 21.5079 26.4174 21.9063 26.9747L20.594 28.5843L20.2266 27.663C20.0609 27.2524 19.6773 26.971 19.2362 26.9365C18.7948 26.9018 18.3719 27.1199 18.1443 27.4996L17.9344 27.8552L17.7362 25.5223C17.6907 24.9704 17.2632 24.5267 16.7136 24.4601C16.1637 24.3937 15.6431 24.7232 15.4674 25.2484L14.0326 29.5526C13.9324 29.857 14.0964 30.1851 14.4 30.2876C14.457 30.3141 14.5182 30.33 14.5808 30.334C14.8314 30.3348 15.0547 30.1751 15.135 29.9376L16.5638 25.6334L16.768 28.0011C16.8101 28.5063 17.1732 28.9263 17.667 29.0408C18.1608 29.1553 18.6717 28.9377 18.9317 28.5028L19.1476 28.1469L19.5093 29.0627C19.6628 29.4486 20.0099 29.724 20.4209 29.7852C20.8318 29.8464 21.2442 29.6844 21.5039 29.36L22.8629 27.6397C23.0132 27.679 23.1682 27.6986 23.3237 27.6981C23.9488 27.7029 24.5291 27.3737 24.8458 26.8346L25.4291 25.8606L27.6512 23.1603L32.6611 14.4642L33.1686 14.7558C33.3038 14.8333 33.4024 14.9612 33.4425 15.1118C33.483 15.2613 33.4619 15.4208 33.3844 15.5549L31.0515 19.5969C30.9635 19.7296 30.9336 19.8925 30.9689 20.0479C31.0042 20.2032 31.1013 20.3373 31.238 20.419C31.3725 20.497 31.5325 20.5181 31.6823 20.4777C31.8324 20.437 31.96 20.3384 32.0371 20.2034L34.3701 16.1615C34.6027 15.7591 34.6657 15.2807 34.5449 14.8319C34.4242 14.3836 34.1306 14.0017 33.7285 13.7702L33.221 13.4786L34.6791 10.9531C34.8383 10.676 34.7446 10.3224 34.4692 10.16L34.7608 9.65254C34.9997 9.24388 35.0629 8.75576 34.9356 8.29954ZM32.7368 8.46272C32.814 8.32774 32.9422 8.22892 33.0928 8.18876C33.2426 8.15174 33.401 8.17253 33.5359 8.24714C33.6712 8.32432 33.7698 8.45247 33.8102 8.60284C33.8472 8.75263 33.8264 8.91097 33.7518 9.04596L33.4602 9.55344L32.4452 8.9702L32.7368 8.46272ZM24.7874 24.7469L24.4958 24.5777L23.6326 24.0759L24.4608 21.8597L26.2979 22.9211L24.7874 24.7469ZM23.0377 26.4322C22.7914 26.2605 22.7156 25.9301 22.8629 25.6681L23.1545 25.1609L24.1692 25.7442L23.8776 26.2457C23.7958 26.3875 23.6586 26.4883 23.4988 26.5239C23.339 26.5592 23.1719 26.5262 23.0377 26.4322ZM26.9629 21.9648L24.9449 20.7983L29.6108 12.7145L31.6288 13.881L26.9629 21.9648ZM32.212 12.872L30.194 11.7055L31.3605 9.68757L33.3785 10.854L32.212 12.872Z" fill="white"/>
<path d="M9.20332 26.1406L7.13893 28.1995L5.90241 26.963C5.67487 26.7369 5.3075 26.7369 5.07996 26.963C4.96946 27.0727 4.90738 27.2216 4.90738 27.3771C4.90738 27.5326 4.96946 27.6818 5.07996 27.7912L6.31648 29.0277C6.53519 29.2447 6.8308 29.3663 7.13893 29.366C7.44878 29.3677 7.74694 29.2461 7.96708 29.0277L10.0258 26.963C10.224 26.7315 10.2106 26.3866 9.9953 26.1713C9.77972 25.9557 9.43485 25.9424 9.20332 26.1406Z" fill="white"/>
<path d="M2.33295 27.7094C2.33295 30.4476 4.55254 32.6669 7.29044 32.6669C10.0283 32.6669 12.2479 30.4476 12.2479 27.7094C12.2479 27.3874 11.9868 27.1262 11.6647 27.1262C11.3426 27.1262 11.0815 27.3874 11.0815 27.7094C11.0815 29.8032 9.38415 31.5005 7.29044 31.5005C5.19672 31.5005 3.49941 29.8032 3.49941 27.7094C3.49941 25.6157 5.19672 23.9184 7.29044 23.9184C8.11118 23.9161 8.90999 24.1824 9.56499 24.6768C9.82272 24.8702 10.1884 24.8178 10.3815 24.56C10.5748 24.3023 10.5227 23.9369 10.265 23.7436C8.76276 22.617 6.75277 22.4358 5.07341 23.2754C3.39376 24.1152 2.33295 25.8319 2.33295 27.7094Z" fill="white"/>
<path d="M20.9964 4.6717C21.3185 4.6717 21.5797 4.41084 21.5797 4.08847C21.5797 3.76638 21.3185 3.50523 20.9964 3.50523H5.83235C5.51026 3.50523 5.24911 3.76638 5.24911 4.08847V6.4214C5.24911 6.74378 5.51026 7.00464 5.83235 7.00464H20.9964C21.3185 7.00464 21.5797 6.74378 21.5797 6.4214C21.5797 6.09931 21.3185 5.83817 20.9964 5.83817H6.41558V4.6717H20.9964Z" fill="white"/>
<path d="M7.58204 8.1711C7.25996 8.1711 6.99881 8.43225 6.99881 8.75434C6.99881 9.07671 7.25996 9.33757 7.58204 9.33757H19.2467C19.5688 9.33757 19.83 9.07671 19.83 8.75434C19.83 8.43225 19.5688 8.1711 19.2467 8.1711H7.58204Z" fill="white"/>
<path d="M22.7461 12.2537H9.91499C9.5929 12.2537 9.33176 12.5149 9.33176 12.837C9.33176 13.1593 9.5929 13.4202 9.91499 13.4202H22.7461C23.0682 13.4202 23.3294 13.1593 23.3294 12.837C23.3294 12.5149 23.0682 12.2537 22.7461 12.2537Z" fill="white"/>
<path d="M16.9138 16.3364C16.9138 16.0143 16.6526 15.7531 16.3306 15.7531H4.66588C4.34379 15.7531 4.08264 16.0143 4.08264 16.3364C4.08264 16.6588 4.34379 16.9196 4.66588 16.9196H16.3306C16.6526 16.9196 16.9138 16.6588 16.9138 16.3364Z" fill="white"/>
<path d="M22.7461 15.7531H18.6635C18.3414 15.7531 18.0803 16.0143 18.0803 16.3364C18.0803 16.6588 18.3414 16.9196 18.6635 16.9196H22.7461C23.0682 16.9196 23.3294 16.6588 23.3294 16.3364C23.3294 16.0143 23.0682 15.7531 22.7461 15.7531Z" fill="white"/>
<path d="M10.4982 19.8358C10.8203 19.8358 11.0814 19.5749 11.0814 19.2525C11.0814 18.9305 10.8203 18.6693 10.4982 18.6693H4.66588C4.34379 18.6693 4.08264 18.9305 4.08264 19.2525C4.08264 19.5749 4.34379 19.8358 4.66588 19.8358H10.4982Z" fill="white"/>
<path d="M12.8312 19.8358H16.9138C17.2359 19.8358 17.497 19.5749 17.497 19.2525C17.497 18.9305 17.2359 18.6693 16.9138 18.6693H12.8312C12.5091 18.6693 12.2479 18.9305 12.2479 19.2525C12.2479 19.5749 12.5091 19.8358 12.8312 19.8358Z" fill="white"/>
<path d="M26.2455 26.8346C25.9234 26.8346 25.6623 27.0957 25.6623 27.4178V33.2502C25.6623 33.5725 25.4011 33.8334 25.0791 33.8334H1.7497C1.42761 33.8334 1.16647 33.5725 1.16647 33.2502V1.75553C1.16647 1.43344 1.42761 1.1723 1.7497 1.1723H25.0791C25.4011 1.1723 25.6623 1.43344 25.6623 1.75553V12.7088C25.6623 13.0309 25.9234 13.2921 26.2455 13.2921C26.5676 13.2921 26.8288 13.0309 26.8288 12.7088V1.75553C26.8288 0.789265 26.0453 0.00582886 25.0791 0.00582886H1.7497C0.783436 0.00582886 0 0.789265 0 1.75553V33.2502C0 34.2167 0.783436 34.9999 1.7497 34.9999H25.0791C26.0453 34.9999 26.8288 34.2167 26.8288 33.2502V27.4178C26.8288 27.0957 26.5676 26.8346 26.2455 26.8346Z" fill="white"/>
</g>
<defs>
<clipPath id="clip0_88_77">
<rect width="35" height="35" fill="white"/>
</clipPath>
</defs>
</svg>
