<svg width="35" height="35" viewBox="0 0 35 35" fill="none" xmlns="http://www.w3.org/2000/svg">
<path d="M34.4065 8.13054C34.9448 7.60402 35.1349 6.83126 34.9026 6.1139C34.6703 5.39655 34.0638 4.88355 33.3198 4.77509L30.3192 4.3376C30.0148 4.29319 29.7518 4.10146 29.6157 3.82474L28.2738 1.09665C27.941 0.420209 27.2673 2.28882e-05 26.5156 2.28882e-05C25.7638 2.28882e-05 25.0901 0.420209 24.7574 1.09665L23.4155 3.82474C23.2793 4.10146 23.0163 4.29319 22.7119 4.3376L19.7114 4.77509C18.9674 4.88355 18.3608 5.39655 18.1285 6.11397C17.8961 6.83133 18.0863 7.60409 18.6247 8.13054L20.7959 10.2541C21.0162 10.4695 21.1167 10.7797 21.0647 11.0839L20.5522 14.0823C20.425 14.8258 20.7239 15.5631 21.3321 16.0064C21.6758 16.257 22.0778 16.3843 22.4827 16.3843C22.7943 16.3843 23.1076 16.3088 23.3969 16.1562L26.0808 14.7405C26.3531 14.5969 26.6782 14.5969 26.9504 14.7405L29.6343 16.1562C30.2997 16.5072 31.0908 16.4498 31.6991 16.0065C32.3074 15.5632 32.6062 14.8259 32.4792 14.0825L32.3811 13.5086C32.3332 13.2283 32.0677 13.0398 31.7887 13.0881C31.5094 13.1362 31.3217 13.4023 31.3696 13.6825L31.4676 14.2565C31.5291 14.6162 31.3902 14.959 31.0958 15.1735C30.8016 15.388 30.4337 15.4147 30.1118 15.2448L27.428 13.8292C26.8566 13.5277 26.1745 13.5277 25.6032 13.8292L22.9193 15.2449C22.5975 15.4148 22.2296 15.3881 21.9352 15.1735C21.641 14.959 21.502 14.6162 21.5635 14.2565L22.076 11.2582C22.1852 10.6199 21.9745 9.9689 21.5122 9.51686L19.3409 7.39334C19.0805 7.13866 18.9921 6.77937 19.1045 6.43229C19.2169 6.08521 19.4989 5.84666 19.8587 5.79422L22.8593 5.35673C23.4981 5.26365 24.0499 4.86131 24.3356 4.28063L25.6775 1.55254C25.8385 1.2253 26.1518 1.02993 26.5155 1.02993C26.8791 1.02993 27.1924 1.2253 27.3533 1.55254L28.6952 4.28063C28.9809 4.86131 29.5328 5.26365 30.1716 5.35673L33.1721 5.79422C33.532 5.84673 33.814 6.08521 33.9264 6.43222C34.0388 6.7793 33.9504 7.13859 33.6899 7.39327L31.5187 9.51679C31.0564 9.96883 30.8457 10.6198 30.9548 11.258L30.9719 11.3578C31.0197 11.638 31.285 11.8263 31.5644 11.7782C31.8436 11.7302 32.0313 11.464 31.9834 11.1838L31.9663 11.084C31.9143 10.7798 32.0148 10.4696 32.2351 10.2542L34.4065 8.13054Z" fill="white"/>
<path d="M28.2029 22.2286C28.5666 21.8054 28.7873 21.2551 28.7873 20.6537C28.7873 19.3218 27.7073 18.2383 26.3798 18.2383L18.5698 18.2288C18.5687 18.2257 18.4823 17.9742 18.4274 17.8565C18.4272 17.8559 18.4268 17.8552 18.4265 17.8545C18.3079 17.6003 18.2638 17.3227 18.2991 17.0517C18.4135 16.1727 18.4419 15.2599 18.4646 14.5265C18.5233 12.6454 18.1491 11.2715 17.3206 10.3262C16.4882 9.37632 15.2913 8.83326 14.0328 8.83326C14.0233 8.83326 14.0138 8.83326 14.0043 8.83333C13.2973 8.83793 12.722 9.42486 12.722 10.1417V12.4286C12.722 13.8837 12.4872 15.9084 11.3687 17.2908C10.1821 18.7573 9.15737 18.7446 7.46045 18.7237C7.40222 18.723 7.34345 18.7222 7.28413 18.7216V18.1037C7.28413 17.079 6.45319 16.2454 5.43197 16.2454H1.85216C0.830946 16.2453 0 17.079 0 18.1037V23.2736C0 23.558 0.229682 23.7885 0.513141 23.7885C0.7966 23.7885 1.02628 23.558 1.02628 23.2736V18.1037C1.02628 17.6467 1.39677 17.275 1.85216 17.275H5.4319C5.8873 17.275 6.25778 17.6467 6.25778 18.1037V33.1417C6.25778 33.5986 5.8873 33.9703 5.4319 33.9703H1.85216C1.39677 33.9703 1.02628 33.5986 1.02628 33.1417V25.6227C1.02628 25.3383 0.7966 25.1078 0.513141 25.1078C0.229682 25.1078 0 25.3383 0 25.6227V33.1417C0 34.1664 0.830946 35 1.85216 35H5.4319C6.45319 35 7.28407 34.1664 7.28407 33.1417V32.3641H7.97783C8.31343 32.3641 8.64573 32.4818 8.91332 32.6955C8.98249 32.7507 9.06302 32.8198 9.15641 32.8998C9.79811 33.4494 10.9924 34.4726 12.7021 34.4726L25.298 34.4727C26.6254 34.4727 27.7054 33.3892 27.7054 32.0573C27.7054 31.4821 27.5037 30.9534 27.1678 30.5381C28.1094 30.2099 28.7873 29.3113 28.7873 28.2562C28.7873 27.6549 28.5667 27.1047 28.203 26.6815C29.0683 26.315 29.677 25.455 29.677 24.4551C29.677 23.4551 29.0681 22.5951 28.2029 22.2286ZM22 19.268H26.3799C27.1414 19.268 27.761 19.8897 27.761 20.6537C27.761 21.4178 27.1414 22.0395 26.3799 22.0395H22C21.2385 22.0395 20.6189 21.4178 20.6189 20.6537C20.6189 19.8896 21.2385 19.268 22 19.268ZM18.948 33.4429H12.7021C11.371 33.4429 10.4394 32.6448 9.82288 32.1167C9.72655 32.0341 9.63555 31.9562 9.55249 31.8899C9.10394 31.5317 8.54475 31.3345 7.9779 31.3345H7.28413V19.7513C7.33921 19.7519 7.39381 19.7526 7.44786 19.7533C9.24556 19.7751 10.666 19.793 12.1655 17.9398C12.8876 17.0474 13.7483 15.3668 13.7483 12.4286V10.1418C13.7483 9.98906 13.8662 9.86406 14.0111 9.8631C14.018 9.86303 14.0247 9.86303 14.0317 9.86303C14.9817 9.86303 15.9218 10.2894 16.55 11.0062C17.1984 11.7459 17.4891 12.887 17.439 14.4945C17.4169 15.2053 17.3894 16.0899 17.2815 16.9185C17.2209 17.3844 17.2954 17.8591 17.4971 18.2913C17.4982 18.2934 17.4994 18.2963 17.5005 18.2989C17.5022 18.3027 17.5037 18.3061 17.5058 18.311C17.5062 18.3118 17.5065 18.3127 17.5069 18.3136C17.671 18.6998 17.7959 19.1204 17.8153 19.5433C17.8395 20.0703 17.7338 20.6008 17.4996 21.1232C17.4949 21.134 17.0094 22.2076 15.672 22.803C15.413 22.9183 15.2962 23.2225 15.411 23.4824C15.8084 24.3814 17.2839 23.0299 17.648 22.6513C17.9568 22.3302 18.2554 21.9544 18.4369 21.5426C18.7364 20.8746 18.8722 20.1859 18.8405 19.496C18.837 19.4193 18.8299 19.3396 18.8206 19.2586H20.0367C19.7575 19.653 19.5927 20.1343 19.5927 20.6538C19.5927 21.6538 20.2015 22.5137 21.0667 22.8802C20.703 23.3034 20.4824 23.8537 20.4824 24.4551C20.4824 25.0564 20.703 25.6067 21.0666 26.0299C20.2014 26.3964 19.5927 27.2563 19.5927 28.2562C19.5927 28.8315 19.7944 29.3602 20.1303 29.7755C19.1887 30.1037 18.5108 31.0024 18.5108 32.0574C18.5108 32.5726 18.6729 33.0503 18.948 33.4429ZM25.298 33.443L20.9155 33.4429C20.1552 33.4415 19.537 32.8205 19.537 32.0573C19.537 31.2932 20.1566 30.6716 20.9182 30.6716H25.298C26.0596 30.6716 26.6792 31.2932 26.6792 32.0573C26.6792 32.8214 26.0595 33.443 25.298 33.443ZM26.3798 29.6419H22C21.2385 29.6419 20.6189 29.0202 20.6189 28.2561C20.6189 27.4921 21.2385 26.8704 22 26.8704H26.3799C27.1414 26.8704 27.761 27.4921 27.761 28.2561C27.761 29.0203 27.1414 29.6419 26.3798 29.6419ZM27.2695 25.8408H22.8897C22.1281 25.8408 21.5085 25.2191 21.5085 24.4551C21.5085 23.6909 22.1281 23.0693 22.8897 23.0693H27.2695C28.0311 23.0693 28.6507 23.6909 28.6507 24.4551C28.6507 25.2191 28.0311 25.8408 27.2695 25.8408Z" fill="white"/>
</svg>
