<svg width="68" height="68" viewBox="0 0 68 68" fill="none" xmlns="http://www.w3.org/2000/svg">
<circle cx="34" cy="34" r="34" fill="#FEEB10"/>
<path d="M29.8631 15.8574C29.5617 15.9507 29.3741 16.0707 29.0526 16.3841L28.7378 16.6907L27.847 16.7441C27.3581 16.7774 26.3199 16.8441 25.543 16.8974C24.7593 16.9507 24.0293 16.9974 23.9154 16.9974C23.614 16.9974 23.4399 17.2174 23.4399 17.6041V17.9174L21.1492 17.9441C19.0059 17.9707 18.8251 17.9841 18.4098 18.1174C17.3649 18.4641 16.5277 19.3507 16.2665 20.3774L16.1794 20.7307H15.2216C14.3509 20.7307 14.2504 20.7441 14.1299 20.8641C13.9624 21.0307 13.9557 21.3441 14.1165 21.4841C14.2103 21.5707 14.4246 21.5974 15.2015 21.6107L16.166 21.6307L16.2732 21.9974C16.4674 22.6374 16.6885 23.0174 17.1104 23.4374C17.3314 23.6641 17.673 23.9241 17.8673 24.0241C18.5571 24.3707 18.7983 24.3974 21.2095 24.3974H23.4399V24.7241C23.4399 24.9441 23.48 25.0974 23.5671 25.2041C23.7011 25.3707 23.3997 25.3374 27.5054 25.5974L28.7914 25.6841L28.9923 25.9374C29.3004 26.3174 29.8162 26.5374 30.5061 26.5841L31.0754 26.6174V27.9641C31.0754 29.2307 31.0821 29.3241 31.216 29.4907L31.35 29.6641H32.723H34.0894V30.0241C34.0894 30.2841 34.1296 30.4241 34.23 30.5574C34.364 30.7307 34.3774 30.7307 35.2548 30.7307C36.6078 30.7307 37.1034 30.9441 37.4718 31.6907C37.6593 32.0774 37.6727 32.1441 37.9071 34.9307C37.9808 35.8307 38.088 37.0574 38.1416 37.6641C38.3023 39.5041 38.3291 39.2774 37.9406 39.4107C37.7531 39.4707 36.4738 39.8574 35.0941 40.2641C33.7143 40.6774 32.4752 41.0641 32.348 41.1307C31.7117 41.4507 31.1691 42.1641 30.9682 42.9307C30.8677 43.3174 30.861 43.4707 30.9347 44.2974C30.9749 44.8107 31.1156 46.4774 31.2428 47.9974C31.3701 49.5174 31.4906 50.9841 31.5174 51.2574C31.5978 52.0841 30.6266 51.9974 39.6151 51.9974C47.331 51.9974 47.418 51.9974 47.552 51.8641C47.686 51.7307 47.686 51.6441 47.686 47.1841C47.686 42.2107 47.686 42.2507 47.2841 41.3507C47.0363 40.8041 46.755 40.4041 46.199 39.8307L45.7436 39.3507V33.7841C45.7436 27.5041 45.7235 27.7907 46.2459 27.2107C46.6277 26.7841 47.0095 26.6241 47.7864 26.5707C48.6036 26.5041 49.1796 26.3841 49.7489 26.1374C51.2693 25.4974 52.3878 24.2041 52.8768 22.5307C53.0576 21.9241 53.0576 20.4774 52.8835 19.8641C52.3275 17.9641 50.9545 16.5774 49.0121 15.9841L48.5232 15.8307L39.2802 15.8174C34.1966 15.8107 29.9568 15.8307 29.8631 15.8574ZM48.9251 16.8774C50.4053 17.3841 51.5305 18.5107 51.986 19.9641C52.207 20.6574 52.1869 21.7641 51.9525 22.4974C51.6645 23.3841 51.2023 24.0707 50.5191 24.6307C49.6953 25.3107 48.8715 25.6107 47.5453 25.7241C47.0028 25.7707 46.7416 25.8241 46.4603 25.9641C45.8842 26.2307 45.4489 26.6641 45.1609 27.2507L44.9064 27.7574L44.8863 32.4441L44.8662 37.1307H41.9258C40.305 37.1307 38.9788 37.1107 38.9788 37.0907C38.9788 37.0707 38.9185 36.3574 38.8448 35.5107C38.4966 31.5574 38.4966 31.5774 38.0679 30.9507C37.7866 30.5374 37.1838 30.1107 36.6814 29.9641C36.4805 29.9041 36.0786 29.8641 35.6902 29.8641H35.0338L35.0137 27.9107C35.0003 26.3707 34.9735 25.9307 34.8998 25.8441C34.8195 25.7441 34.5716 25.7307 32.5556 25.7307C30.3453 25.7307 30.2917 25.7307 30.0037 25.5774C29.843 25.4974 29.6487 25.3441 29.5751 25.2441C29.4344 25.0574 29.4344 24.9707 29.4143 21.2441C29.4009 17.6241 29.4076 17.4174 29.5215 17.1974C29.5952 17.0707 29.7693 16.8974 29.9099 16.8174L30.1712 16.6641L39.2802 16.6841L48.3892 16.6974L48.9251 16.8774ZM28.5302 18.0641V18.5307H26.4204H24.3106V18.1974C24.3106 18.0107 24.3173 17.8641 24.3307 17.8574C24.3709 17.8441 27.8738 17.6107 28.1819 17.6041L28.5302 17.5974V18.0641ZM18.9523 21.1641C18.9523 23.7774 18.9992 23.6174 18.3763 23.2907C16.5947 22.3574 16.6282 19.9107 18.4366 19.0641C18.6643 18.9507 18.8719 18.8641 18.9054 18.8641C18.9322 18.8641 18.9523 19.8974 18.9523 21.1641ZM23.3729 21.1974V23.5307H21.598H19.823V21.1974V18.8641H21.598H23.3729V21.1974ZM28.5302 20.0641V20.7307H26.4204H24.3106V20.0641V19.3974H26.4204H28.5302V20.0641ZM28.5302 22.2641V22.9307H26.4204H24.3106V22.3107C24.3106 21.9641 24.3307 21.6641 24.3575 21.6441C24.3775 21.6174 25.3286 21.5974 26.4673 21.5974H28.5302V22.2641ZM28.5302 24.3307C28.5302 24.5841 28.5235 24.7974 28.5168 24.7974C28.5034 24.7974 27.626 24.7374 26.5543 24.6641C25.4894 24.5907 24.545 24.5307 24.4646 24.5307C24.324 24.5307 24.3106 24.4974 24.3106 24.1974V23.8641H26.4204H28.5302V24.3307ZM34.0894 27.6974V28.7974H33.0512H32.0131V27.6974V26.5974H33.0512H34.0894V27.6974ZM44.8729 38.5641V39.1307H42.0263H39.1797L39.1529 38.9774C39.1328 38.8974 39.1061 38.6441 39.086 38.4107L39.0458 37.9974H41.9593H44.8729V38.5641ZM45.6163 40.5174C46.4201 41.3507 46.7282 42.0174 46.7952 43.0441L46.8353 43.6641H45.2011H43.5668L43.3391 43.2307C43.0913 42.7574 42.7832 42.4507 42.2808 42.1974C41.9727 42.0374 41.9057 42.0307 40.6533 42.0307C39.3606 42.0307 39.3472 42.0307 38.9654 42.2174C38.5099 42.4374 38.0344 42.9441 37.867 43.3641L37.7531 43.6641L34.7659 43.6507L31.7786 43.6307L31.7987 43.3307C31.8322 42.9241 32.08 42.4641 32.4417 42.1507C32.7096 41.9174 32.8905 41.8441 34.0023 41.5041C34.6922 41.2974 36.092 40.8774 37.1034 40.5707L38.9453 40.0107L42.033 40.0041L45.1207 39.9974L45.6163 40.5174ZM41.8923 42.9907C42.0397 43.0574 42.2406 43.1974 42.3411 43.3041C42.6894 43.6774 42.7296 43.8774 42.7296 45.3307V46.6641H40.6533H38.5769V45.2974C38.5769 43.7907 38.6104 43.6441 39.0257 43.2507C39.374 42.9241 39.595 42.8707 40.6533 42.8707C41.457 42.8641 41.6713 42.8907 41.8923 42.9907ZM37.6593 44.6774C37.6794 44.7641 37.6861 45.2641 37.6727 45.7974C37.6526 46.9174 37.7062 47.3841 37.8804 47.5107C37.9741 47.5774 38.5568 47.5974 40.6666 47.5974C43.2453 47.5974 43.3391 47.5907 43.4663 47.4641C43.5936 47.3374 43.6003 47.2441 43.6003 45.9307V44.5307H45.2078H46.8152V47.1307V49.7307H39.5548H32.2877L32.2542 49.4441C32.2341 49.2907 32.1671 48.5507 32.1068 47.7974C32.0466 47.0441 31.9662 46.0174 31.9193 45.5107C31.8724 45.0041 31.8523 44.5774 31.8724 44.5641C31.8858 44.5441 33.1919 44.5307 34.7659 44.5307H37.6258L37.6593 44.6774ZM46.8152 50.8641V51.1307L39.6017 51.1174L32.3814 51.0974L32.3614 50.8441L32.3413 50.5974H39.5749H46.8152V50.8641Z" fill="black"/>
<path d="M38.6506 18.5712C37.9004 18.7245 37.2039 19.2778 36.8489 19.9978C36.6881 20.3312 36.668 20.4378 36.668 21.0978C36.668 21.7778 36.6814 21.8645 36.8623 22.2312C37.2374 22.9778 37.9339 23.5045 38.7779 23.6645C39.24 23.7512 47.2104 23.7512 47.6793 23.6645C48.5031 23.5112 49.1997 22.9778 49.5814 22.1978C49.7824 21.7978 49.7958 21.7178 49.7958 21.0978C49.7958 20.5112 49.7757 20.3845 49.6149 20.0512C49.3001 19.3712 48.55 18.7378 47.8534 18.5645C47.4917 18.4712 39.1061 18.4778 38.6506 18.5712ZM44.8729 20.0312V20.6645H41.2226C38.2688 20.6645 37.5723 20.6512 37.5723 20.5778C37.5723 20.4245 37.9473 19.8912 38.1617 19.7378C38.6439 19.3978 38.6104 19.4045 41.8455 19.3978H44.8729V20.0312ZM47.84 19.5045C48.6705 19.7845 49.1528 20.7845 48.8648 21.6445C48.7174 22.0912 48.4227 22.4245 47.974 22.6378C47.619 22.8178 47.5386 22.8245 46.688 22.8312H45.7771L45.757 21.1112L45.7436 19.3978H46.6344C47.2707 19.3978 47.619 19.4312 47.84 19.5045ZM44.8729 22.2045V22.8712L41.8455 22.8512C38.818 22.8312 38.8113 22.8312 38.5099 22.6778C38.3425 22.5912 38.1215 22.4378 38.021 22.3445C37.8335 22.1645 37.5723 21.7378 37.5723 21.5978C37.5723 21.5512 38.7377 21.5312 41.2226 21.5312H44.8729V22.2045Z" fill="black"/>
<path d="M31.2428 19.5644C31.0754 19.7244 31.0754 19.7244 31.0754 21.131C31.0754 22.5377 31.0754 22.5377 31.2428 22.6977C31.4371 22.8977 31.6112 22.911 31.8188 22.7377C31.9796 22.611 31.9796 22.6044 31.9796 21.131C31.9796 19.6577 31.9796 19.651 31.8188 19.5244C31.6112 19.351 31.4371 19.3644 31.2428 19.5644Z" fill="black"/>
<path d="M32.6761 19.5244C32.5154 19.651 32.5154 19.6577 32.5154 21.131C32.5154 22.6044 32.5154 22.611 32.6761 22.7377C32.8838 22.911 33.0579 22.8977 33.2522 22.6977C33.4196 22.5377 33.4196 22.5377 33.4196 21.131C33.4196 19.7244 33.4196 19.7244 33.2522 19.5644C33.0579 19.3644 32.8838 19.351 32.6761 19.5244Z" fill="black"/>
<path d="M34.2233 19.444C33.9755 19.5307 33.9554 19.6574 33.9554 21.144C33.9554 22.5107 33.9621 22.604 34.0894 22.7307C34.2635 22.904 34.431 22.8974 34.652 22.724L34.8261 22.5907V21.1574C34.8261 19.724 34.8261 19.724 34.6587 19.564C34.498 19.3974 34.4176 19.3774 34.2233 19.444Z" fill="black"/>
</svg>
