<svg width="84" height="84" viewBox="0 0 84 84" fill="none" xmlns="http://www.w3.org/2000/svg">
<circle cx="42" cy="42" r="41.5" fill="#FFCA18" stroke="#FFCA18"/>
<path fill-rule="evenodd" clip-rule="evenodd" d="M32.1119 28.1405C29.2592 31.2352 28.5461 33.3575 29.7942 35.6564C30.953 37.7787 30.6857 37.9554 23.1974 38.6627C16.9574 39.37 10.4499 42.0229 9.55835 44.2334C8.57766 46.7977 8.93445 51.3956 10.2714 53.0757C15.1744 58.8234 38.1735 61.0338 51.0102 56.7896C53.2387 56.0823 54.8433 56.1707 58.5874 57.4084C65.3624 59.6189 70.6219 59.4422 72.7614 56.8778C77.0403 51.6608 75.2575 46.7093 66.7888 39.9006C59.5681 34.153 44.8594 26.9025 38.9757 26.1949C34.7859 25.7528 34.162 25.9297 32.1116 28.1402L32.1119 28.1405ZM46.999 30.7931C60.5488 36.1868 75.4359 48.6545 72.9398 52.6336C72.3159 53.5179 66.0757 53.2525 62.3316 52.0147C61.3509 51.7496 61.6185 52.1032 62.9554 52.899C64.3816 53.6064 66.8777 54.3137 68.5715 54.4022C70.2653 54.4907 71.6915 54.8443 71.6915 55.198C71.6915 56.4359 67.5016 57.1433 63.847 56.5244C60.7735 56.0672 60.5812 56.1472 57.6765 54.6977C56.7893 54.3465 47.8902 50.6886 43.7003 47.682C41.2042 46.0019 35.2316 40.1661 32.9139 37.248C31.6659 35.6564 31.3093 31.2352 32.379 31.2352C32.8247 31.2352 33.4486 31.9425 33.8052 32.9153C34.5183 35.2143 40.0451 40.5198 45.5723 44.1451C49.6681 46.7664 49.563 46.7075 50.9961 47.6129C52.467 48.4488 53.1495 49.0085 55.6456 50.2464C58.0525 51.4844 61.743 52.3303 61.743 51.9766C61.743 51.5345 57.161 49.6276 53.5952 47.859C41.4716 41.6695 30.6852 30.8818 34.2509 28.5826C35.9447 27.4331 40.4909 28.2289 46.9985 30.7931H46.999ZM36.391 44.3218C38.8871 46.6208 41.9178 49.1852 43.1659 49.8925L45.3944 51.3956L41.0264 52.0145C32.1119 53.4292 14.5505 50.6881 11.9652 47.5048C9.29101 44.4101 18.2052 40.3425 27.922 40.1656C31.3985 40.0771 32.3792 40.5193 36.3907 44.3216L36.391 44.3218ZM17.7597 51.3956C20.434 52.4566 24.9804 52.8103 35.3211 52.8988C48.247 52.9873 51.4562 53.3409 50.0298 54.7556C48.8709 55.9051 42.5417 56.7009 34.4296 56.7009C21.5036 56.7009 11.0737 53.6061 11.0737 49.8038C11.0737 49.0964 11.6976 49.008 12.6783 49.3616C13.4806 49.7153 15.7983 50.6881 17.7595 51.3954L17.7597 51.3956Z" fill="black"/>
</svg>
