<svg width="84" height="84" viewBox="0 0 84 84" fill="none" xmlns="http://www.w3.org/2000/svg">
<circle cx="42" cy="42" r="41.5" fill="#FFCA18" stroke="#FFCA18"/>
<path d="M48.462 14.0454C48.3571 14.0554 48.1363 14.0803 47.9817 14.0952L47.6891 14.1201L47.6781 17.1768C47.6615 20.1737 47.6615 20.2335 47.5456 20.3728C47.2641 20.7213 46.7673 20.7612 46.436 20.4575L46.2539 20.2982V17.356V14.4188L45.884 14.5432C43.4385 15.3597 41.4623 17.0672 40.441 19.2428C40.0491 20.0841 39.74 21.3187 39.74 22.0605V22.4289H38.7463H37.7527V23.2005V23.9722H49.0968H60.441V23.2005V22.4289H59.4805H58.5199L58.4813 22.0406C58.3267 20.3131 57.7747 18.9092 56.7314 17.575C56.5381 17.3261 56.0855 16.8582 55.7211 16.5296C55.0201 15.8924 54.3466 15.4344 53.5572 15.051C53.0935 14.827 52.1661 14.4636 52.0502 14.4636C52.0115 14.4636 51.995 15.4443 51.995 17.2714C51.995 19.1432 51.9729 20.1289 51.9342 20.2235C51.7355 20.6964 51.0565 20.8159 50.7032 20.4326L50.5597 20.2783V17.2066V14.13L50.3002 14.0952C49.958 14.0504 48.7104 14.0205 48.462 14.0454Z" fill="black"/>
<path d="M42.5222 25.5758C42.7375 27.3382 43.6704 29.3295 44.9732 30.8031C46.1545 32.1372 47.0654 32.6948 48.3737 32.889C48.8705 32.9587 49.6599 32.9238 50.1457 32.8093C50.637 32.6948 51.4209 32.3314 51.8294 32.0227C52.4973 31.5249 53.4082 30.5342 53.9823 29.673C54.7772 28.4832 55.3955 26.8702 55.5611 25.5509L55.5997 25.2672H49.0416H42.4836L42.5222 25.5758Z" fill="black"/>
<path d="M16.323 27.4074C15.6495 27.5319 15.3403 27.6315 14.7055 27.9103C12.8783 28.7118 11.4982 30.3297 11.1229 32.1219C10.9407 32.9832 10.9628 33.8743 11.1781 34.6509C11.2222 34.8152 13.331 38.982 15.8648 43.9106C18.3931 48.8391 20.4742 52.9014 20.4852 52.9412C20.4963 52.9811 20.2147 53.1702 19.7621 53.4192C18.7353 53.9917 18.3158 54.38 18.0287 55.0371C17.3608 56.5754 18.0508 58.273 19.6462 59.0198C20.1927 59.2737 20.6067 59.3633 21.236 59.3682C21.6555 59.3682 21.7825 59.3433 22.605 59.0895C23.1239 58.9301 23.5324 58.8256 23.56 58.8505C23.5821 58.8754 24.4157 60.4336 25.4093 62.3154L27.22 65.7305L27.634 66.0143C28.186 66.3827 28.9368 66.7063 29.6158 66.8706C30.0905 66.9851 30.2727 67 31.0179 67C31.7742 67 31.9398 66.9851 32.4256 66.8706C33.8719 66.5221 35.1636 65.6459 35.9089 64.4959C36.3726 63.789 36.621 63.0373 36.6817 62.1661C36.7093 61.7379 36.7093 61.723 36.1904 60.0702L35.6715 58.4074L35.9365 58.0042C36.4002 57.2873 36.3726 57.7752 36.3726 50.4023V43.8857H37.3938H38.4151V54.8629V65.8401H49.4832H60.5514V54.8629V43.8857H61.545H62.5442L62.5056 53.0806L62.4724 62.2806L62.6215 63.2015C62.7429 63.9682 62.7981 64.1673 62.9306 64.3963C63.1625 64.7896 63.4827 65.1033 63.9077 65.3572C65.1553 66.1039 66.7175 65.9595 67.7443 65.0037C68.2908 64.4909 68.4343 64.1922 68.5889 63.2015L68.7269 62.3801L68.7048 52.7471C68.6883 42.0736 68.7159 42.8502 68.3295 41.4961C67.4241 38.3149 64.6916 35.6316 61.2359 34.5264C60.0546 34.1481 59.9055 34.1332 57.6532 34.0983L55.6107 34.0635L53.4358 38.4294C52.2379 40.829 51.2442 42.7904 51.2276 42.7904C51.2056 42.7904 51.0841 41.9242 50.9461 40.8589L50.7087 38.9273L50.8523 38.4593C51.0841 37.7325 51.1669 37.2944 51.2056 36.6124L51.2387 35.9901L49.5881 35.9303L47.9431 35.8706L47.7278 36.0548C47.4628 36.2888 47.2586 36.6372 47.1868 36.9907C47.1371 37.2496 47.1426 37.2745 47.4849 38.0461L47.8437 38.8327L47.5898 40.7842C47.4518 41.8595 47.3193 42.7407 47.3027 42.7407C47.2862 42.7407 46.3091 40.7991 45.1277 38.4195C43.9464 36.0448 42.9693 34.0933 42.9638 34.0834C42.9252 34.0386 37.6202 34.2327 37.173 34.3024C34.2528 34.7306 31.8018 36.5576 30.7971 39.0517C30.5487 39.6641 30.361 40.4457 30.3168 41.0381C30.3003 41.3218 30.2672 41.526 30.2451 41.4861C30.223 41.4513 29.3674 38.753 28.3406 35.4972C26.7342 30.3895 26.3257 29.1797 26.138 28.9657C26.138 28.9607 24.7634 28.6321 23.0963 28.2289L20.0602 27.502L18.6525 27.4074C16.9688 27.288 16.9357 27.288 16.323 27.4074ZM18.4317 29.0005C18.9396 29.0403 19.6462 29.1747 21.9039 29.6726C23.4662 30.0111 24.7469 30.2998 24.7579 30.3048C24.7634 30.3148 26.2374 34.9247 28.037 40.5502C29.8311 46.1757 31.3215 50.8404 31.3491 50.9151C31.3767 50.9947 31.3823 51.0545 31.3602 51.0545C31.3381 51.0545 29.3232 47.1963 26.8832 42.4768C21.2581 31.6191 21.5175 32.102 21.0262 31.6241C20.3914 31.0117 19.7069 30.5985 19.0168 30.4193C18.1778 30.2003 16.7039 30.4492 15.8096 30.9669C15.1361 31.3553 14.5841 32.0622 14.3743 32.8089C14.2694 33.1823 14.2694 33.9191 14.3743 34.2775C14.6393 35.1786 15.3735 35.9453 16.2291 36.2141C17.0682 36.4829 17.7693 36.453 18.52 36.1195C19.3149 35.771 19.7731 35.2284 19.9498 34.4319C20.1154 33.715 20.0105 33.3466 19.4805 32.7143C19.2873 32.4804 19.2377 32.3907 19.3205 32.4455C19.5026 32.55 19.9277 33.028 20.1209 33.3466C20.2755 33.5955 20.281 33.6303 20.281 34.2526C20.2755 34.7953 20.2589 34.9496 20.154 35.2184C19.729 36.2838 18.7629 36.9111 17.1731 37.145C16.0138 37.3143 15.0754 36.9857 14.0431 36.0498C13.6677 35.7113 13.5518 35.557 13.2813 35.079C12.8728 34.3522 12.7734 33.9091 12.8176 33.0578C12.8562 32.3708 12.9445 32.0273 13.2426 31.4598C13.5242 30.9072 13.8223 30.5289 14.2694 30.1405C14.8766 29.6178 15.4618 29.3042 16.207 29.1001C16.9467 28.896 17.0185 28.896 18.4317 29.0005ZM28.2026 48.9934C35.4728 63.0323 34.8711 61.7628 34.6889 62.5693C34.2694 64.4262 32.2821 65.6061 30.2175 65.2178C30.0077 65.1779 29.6213 65.0485 29.3618 64.934C28.6276 64.5955 28.5338 64.4561 26.7231 60.9713C25.8951 59.3633 25.2327 58.044 25.2603 58.039C25.5252 57.9594 26.1104 57.5711 26.5189 57.2027C27.2807 56.5206 27.5125 56.0328 27.5015 55.1616C27.4849 54.2157 27.093 53.3893 26.3478 52.7172C25.9945 52.3936 25.7957 52.2642 25.4093 52.0949L24.9235 51.8759H24.1783C23.411 51.8809 22.8258 51.9804 22.3953 52.1796C22.3069 52.2194 22.2186 52.2492 22.2076 52.2393C22.1689 52.2044 15.1361 38.6336 15.1471 38.6186C15.1582 38.6087 15.4176 38.6535 15.7323 38.7132C16.2125 38.7978 16.4389 38.8128 17.0792 38.7929C18.0232 38.768 18.5642 38.6535 19.3425 38.31C20.2699 37.9067 20.8772 37.4238 21.374 36.7069C21.501 36.5227 21.6169 36.3684 21.6335 36.3684C21.65 36.3684 24.6034 42.0487 28.2026 48.9934Z" fill="black"/>
</svg>
