<svg width="50" height="50" viewBox="0 0 50 50" fill="none" xmlns="http://www.w3.org/2000/svg">
<circle cx="25" cy="25" r="25" fill="#FEEB10"/>
<path fill-rule="evenodd" clip-rule="evenodd" d="M23.6892 14.8938C23.6575 13.9177 23.2813 13.7442 22.9386 13.5953C22.6615 13.4727 22.3337 13.3409 22.006 13.2091C21.6782 13.0772 21.104 12.9902 20.4551 13.305C19.8063 13.6199 18.0684 14.3161 17.0832 16.7656C16.1018 19.2056 16.9022 22.2736 17.0115 22.7052C17.1208 23.1367 18.1762 29.5739 22.3287 33.5585C25.782 36.8742 26.759 36.8796 27.6831 37.1516C28.6073 37.4237 31.0504 37.1108 31.9302 36.1137C32.8006 35.1129 33.1993 34.1217 33.1619 33.863C33.1245 33.6044 32.8465 33.3486 32.4593 32.905C32.072 32.4613 30.1577 30.2961 29.7772 29.9438C29.3929 29.6009 29.0997 29.3833 28.5819 29.7509C28.0548 30.1147 26.6698 30.8531 26.2547 31.0737C25.8396 31.2943 25.534 31.2157 25.1467 30.772C24.7594 30.3283 23.3971 29.1713 22.2159 26.7252C21.2935 24.8261 20.9658 22.8008 20.8842 22.1922C20.8026 21.5836 21.1628 21.4184 21.5059 21.2685C21.8095 21.1359 22.2267 20.883 22.5852 20.695C22.9437 20.507 23.1123 20.3312 23.4057 20.0616C23.6991 19.7921 23.7392 19.476 23.7171 19.1792C23.6912 18.892 23.7251 16.0487 23.6892 14.8938Z" fill="black"/>
</svg>
