<svg width="68" height="68" viewBox="0 0 68 68" fill="none" xmlns="http://www.w3.org/2000/svg">
<circle cx="34" cy="34" r="34" fill="#FEEB10"/>
<path d="M15.3455 17.1762C15.1438 17.2752 14.8862 17.4514 14.7518 17.5945C14.6286 17.7267 13.9342 18.9708 13.2285 20.358C12.5117 21.7453 11.8844 22.9343 11.8396 23.0004C11.75 23.0995 11.3916 23.7931 8.31134 29.6724C6.92244 32.3258 6.82164 32.6451 7.16886 33.4378C7.41528 34.0323 7.99772 34.4177 10.5403 35.7058C12.7581 36.8178 13.0269 36.9279 13.5869 36.9279C14.2478 36.9279 14.5278 36.8289 14.9758 36.4105L15.2783 36.1352L15.7151 36.3554C16.0175 36.5096 16.2415 36.7518 16.4543 37.1371C16.6224 37.4344 16.992 37.9629 17.2608 38.2932C17.7648 38.8877 17.7648 38.8877 17.5968 39.2841C16.992 40.6933 18.0001 42.2127 19.7922 42.587C20.061 42.6421 20.0946 42.7081 20.1506 43.2697C20.285 44.5578 21.2819 45.5157 22.5924 45.6038C23.2532 45.6478 23.2532 45.6588 23.2532 46.0001C23.2532 46.1873 23.4101 46.5946 23.5893 46.9139C24.0261 47.6736 24.6869 48.059 25.6614 48.125C26.3559 48.1911 26.3671 48.1911 26.4343 48.5434C26.4791 48.7416 26.6583 49.1049 26.8375 49.3471C27.5656 50.349 28.9769 50.7344 29.9961 50.2169L30.5338 49.9527L31.4858 50.7564C32.6507 51.7363 32.9643 51.9124 33.782 51.9785C34.3084 52.0335 34.5325 51.9895 35.0365 51.7693C35.7422 51.45 36.3806 50.7564 36.6046 50.0518C36.7614 49.5453 36.851 49.5013 37.1535 49.7655C37.4447 50.0187 38.6432 50.1288 39.2816 49.9527C40.1553 49.7105 41.1633 48.5214 41.1745 47.7287C41.1745 47.5305 41.2194 47.4864 41.3762 47.5525C41.477 47.6076 41.869 47.6626 42.2498 47.6956C43.7171 47.7947 44.9604 46.8038 45.2516 45.2845L45.3189 44.8881L45.9125 44.9982C46.8422 45.1634 47.6822 44.8771 48.3991 44.1615C49.4968 43.0605 49.5416 41.453 48.5335 40.275C48.3655 40.0768 48.2311 39.9006 48.2311 39.8676C48.2311 39.8346 48.4999 39.6254 48.8247 39.4162C49.7432 38.8106 50.9865 37.7427 51.2441 37.3243C51.3785 37.1151 51.6697 36.8289 51.8713 36.7077L52.2634 36.4655L52.5434 36.7958C52.8906 37.2032 53.6635 37.5885 54.1227 37.5885C54.5819 37.5885 59.7231 35.882 60.1711 35.5847C60.6752 35.2434 61 34.6379 61 34.0544C61 33.4708 55.926 18.4533 55.59 18.0239C55.2988 17.6716 54.5707 17.3413 54.0555 17.3303C53.8427 17.3303 52.4314 17.7377 50.9193 18.2331C48.4999 19.0258 48.1303 19.169 47.7606 19.5213C47.3126 19.9727 47.055 20.6883 47.1558 21.2388L47.223 21.5801L46.2709 21.8774C45.1732 22.2187 44.5236 22.2407 43.1235 21.9985C42.5747 21.8994 41.8802 21.7893 41.5666 21.7343C41.2642 21.6902 40.3345 21.5141 39.528 21.3599C38.7104 21.2058 37.2991 20.9966 36.403 20.8975C33.7932 20.6113 32.9419 20.8535 30.9146 22.4719L29.8841 23.2867L27.6104 23.3087L25.3254 23.3307L24.0373 22.6701L22.7604 21.9985L22.794 21.426C22.8164 21.0076 22.7492 20.7103 22.5812 20.358C22.29 19.7745 22.0099 19.5983 18.9633 18.057C17.0928 17.1211 16.7904 17 16.2751 17C15.9503 17 15.5359 17.0771 15.3455 17.1762ZM18.8625 19.3781C20.1394 20.0167 21.2707 20.6443 21.3827 20.7654C21.4835 20.8865 21.5731 21.1177 21.5731 21.2608C21.5731 21.415 20.9011 22.8132 20.0722 24.3656C19.2545 25.918 17.9889 28.3182 17.2608 29.7164C14.1582 35.6288 14.2142 35.5297 13.8894 35.6948C13.5757 35.86 13.5085 35.827 11.0667 34.6049C9.68905 33.9112 8.49056 33.2506 8.40095 33.1295C8.13213 32.7662 8.22174 32.4579 8.90499 31.1698C9.56584 29.9146 10.7083 27.7567 12.422 24.4867C14.5166 20.4791 15.5359 18.5964 15.7151 18.4093C16.0511 18.0459 16.4879 18.1781 18.8625 19.3781ZM54.5483 18.7506C54.7387 18.9598 55.31 20.4461 55.7916 21.9545C55.926 22.4059 56.8781 25.2574 57.9086 28.2962C58.9278 31.3239 59.7679 33.9112 59.7679 34.0323C59.7679 34.5168 59.4095 34.6929 56.7437 35.5627C54.2683 36.3554 54.0891 36.3995 53.7867 36.2563C53.3946 36.0692 53.6187 36.6637 50.6392 27.8007C48.0519 20.1048 48.1303 20.4901 49.0599 20.1378C50.3256 19.6644 53.8091 18.5634 54.0667 18.5524C54.2235 18.5414 54.4475 18.6295 54.5483 18.7506ZM36.5822 22.1196C37.3439 22.2077 38.2287 22.3288 38.5424 22.3949C38.8448 22.4609 39.808 22.6371 40.6705 22.7912C41.533 22.9343 42.6419 23.1325 43.1347 23.2206C44.5348 23.4738 45.3525 23.4408 46.4949 23.0555C47.0438 22.8683 47.5254 22.7252 47.5702 22.7252C47.6374 22.7252 51.8153 35.0342 51.8153 35.2324C51.8041 35.2875 51.5801 35.4746 51.3001 35.6508C51.0201 35.8159 50.6616 36.1352 50.4936 36.3554C50.3256 36.5756 50.012 36.9279 49.788 37.1481C49.3399 37.5885 47.335 39.0088 47.167 39.0198C47.111 39.0198 46.9094 38.8767 46.719 38.7115C46.5397 38.5464 45.9013 38.0179 45.3189 37.5335C44.7364 37.0601 43.8291 36.2894 43.3027 35.827C42.7763 35.3645 41.4434 34.2195 40.3345 33.2837C39.2368 32.3478 37.3439 30.7624 36.1454 29.7385C34.6781 28.5054 33.8268 27.8558 33.5356 27.7677C32.8859 27.5805 32.2811 27.8007 31.5754 28.4943C30.9594 29.0999 30.7914 29.5073 30.5562 30.9826C30.1865 33.3497 28.4728 35.2544 27.1847 34.737L26.8935 34.6159V31.2248C26.9047 28.2742 26.9271 27.8007 27.0951 27.4924C27.2967 27.1181 28.6408 25.907 31.0378 23.9473C33.5916 21.8554 33.782 21.7893 36.5822 22.1196ZM25.4374 24.4867C25.8742 24.5418 26.7031 24.5968 27.2855 24.5968H28.3496L27.5656 25.2795C26.4679 26.2483 26.1879 26.5566 25.9078 27.0631C25.6838 27.5035 25.6726 27.6466 25.6838 31.2358C25.695 35.4086 25.6838 35.3095 26.5239 35.7279C27.1063 36.0141 27.9464 36.0251 28.7192 35.7389C30.2762 35.1553 31.5754 33.1075 31.8667 30.7514C31.9899 29.8706 32.2475 29.3641 32.7515 29.0779C33.0764 28.8907 33.1436 28.8797 33.3676 29.0338C33.6028 29.177 39.6064 34.2525 42.4626 36.7077C43.0787 37.2362 43.9076 37.9298 44.3108 38.2601C44.7028 38.5794 45.106 38.9207 45.2068 39.0198C45.2965 39.1079 45.9013 39.6254 46.5285 40.1649C47.783 41.2218 48.007 41.5411 48.007 42.1797C48.007 43.3908 46.6854 44.1835 45.5989 43.611C45.4197 43.5229 43.6947 42.1026 41.7682 40.4621C39.8529 38.8216 38.1503 37.4564 37.9935 37.4124C37.3887 37.2692 37.0078 38.062 37.4559 38.5574C37.5567 38.6785 38.968 39.8896 40.5809 41.2548C42.1826 42.6311 43.6163 43.8752 43.7395 44.0403C44.098 44.4918 44.0644 45.3946 43.6835 45.846C43.0003 46.6387 42.093 46.7158 41.2642 46.0331C40.9953 45.824 39.4944 44.5578 37.9263 43.2146C36.0446 41.6072 34.9805 40.7814 34.8237 40.7814C34.4541 40.7814 34.0956 41.1778 34.1404 41.5301C34.1628 41.7613 34.7565 42.3228 36.8622 44.1064C38.3407 45.3505 39.64 46.5176 39.7408 46.6937C40.1777 47.3874 39.8417 48.3452 39.0128 48.7526C38.2399 49.1159 38.0495 49.0058 35.4509 46.8038C32.2699 44.0954 32.3035 44.1284 31.8891 44.3046C31.5194 44.4477 31.3738 44.734 31.4858 45.0753C31.5194 45.1964 32.3259 45.9451 33.2556 46.7268C35.2493 48.4223 35.4621 48.6645 35.4621 49.3471C35.4621 49.7765 35.4061 49.8976 34.9693 50.316C34.5549 50.7234 34.4205 50.8004 34.0508 50.7894C33.446 50.7784 33.3564 50.7344 32.2923 49.8426L31.3514 49.0388L31.6651 48.4223C32.0347 47.6956 32.0571 47.5305 31.8107 46.7378C31.5978 46.0331 30.8474 45.2514 30.1865 45.0643C29.9513 44.9872 29.7497 44.9211 29.7497 44.9211C29.7497 44.9101 29.8729 44.6679 30.0297 44.3706C30.7802 42.9173 30.0409 41.2879 28.4056 40.8144L27.7896 40.6273L27.7784 39.9667C27.7784 38.8877 27.2855 38.1611 26.2775 37.7096C25.5494 37.3793 24.8774 37.4124 24.0821 37.8087C23.4997 38.095 23.4101 38.106 23.3204 37.9519C23.0852 37.5335 22.4244 36.9279 21.9651 36.7188C20.9347 36.2453 19.8818 36.4875 19.0529 37.3793C18.5377 37.9409 18.4593 37.9078 17.7984 36.9169C17.1152 35.882 16.7792 35.5077 16.2863 35.2654C16.0399 35.1443 15.8607 35.0122 15.8831 34.9682C15.9391 34.8471 18.5265 29.9366 19.0529 28.9458C19.3106 28.4613 20.117 26.942 20.8339 25.5657L22.1556 23.0555L23.4101 23.716C24.3845 24.2225 24.8326 24.3987 25.4374 24.4867ZM21.7075 37.9739C22.2004 38.3042 22.4244 38.8437 22.2452 39.2951C22.0548 39.7795 20.7779 41.1998 20.4194 41.3319C19.8482 41.5191 19.1201 41.2218 18.8177 40.6603C18.5153 40.0768 18.6161 39.7575 19.3442 38.8877C19.7138 38.4473 20.117 37.9959 20.2514 37.8858C20.5762 37.6106 21.2259 37.6436 21.7075 37.9739ZM26.1431 39.0639C26.5127 39.4052 26.5575 39.5043 26.5575 39.9777C26.5575 40.4952 26.5239 40.5502 25.0678 42.3228C24.2501 43.3247 23.4661 44.1945 23.3316 44.2716C22.346 44.811 21.0579 43.7541 21.4499 42.7412C21.5843 42.3889 24.1605 39.229 24.5637 38.9097C25.023 38.5574 25.639 38.6125 26.1431 39.0639ZM28.2264 42.0365C28.9545 42.3338 29.2905 43.1485 28.9433 43.7871C28.6856 44.2826 26.5799 46.7047 26.3223 46.8259C25.751 47.0791 25.023 46.8809 24.6645 46.3744C24.4517 46.0882 24.4293 45.3836 24.6085 45.0533C24.7878 44.734 26.8263 42.3008 27.0503 42.1466C27.2071 42.0365 27.4984 41.9375 27.7672 41.8934C27.812 41.8934 28.0136 41.9485 28.2264 42.0365ZM30.0521 46.3414C30.433 46.5836 30.6906 47.035 30.6906 47.4424C30.6906 47.8718 29.8729 48.9508 29.3913 49.1489C28.6184 49.4792 27.6216 48.7966 27.6216 47.9489C27.6216 47.5965 27.7224 47.3984 28.1368 46.8919C28.428 46.5506 28.764 46.2203 28.8985 46.1763C29.1897 46.0442 29.7161 46.1212 30.0521 46.3414Z" fill="black"/>
</svg>
