<svg width="68" height="68" viewBox="0 0 68 68" fill="none" xmlns="http://www.w3.org/2000/svg">
<circle cx="34" cy="34" r="34" fill="#FEEB10"/>
<g clip-path="url(#clip0_110_192)">
<path d="M31.7705 13.1258C26.9918 13.7557 22.7422 15.8469 19.2904 19.2986C15.8303 22.7588 13.7223 27.042 13.1176 31.8963C12.9664 33.1393 12.9664 35.8604 13.1176 37.1033C13.7223 41.9576 15.8303 46.2408 19.2904 49.701C22.7842 53.1863 27.0422 55.2775 31.8965 55.8822C33.1395 56.0334 35.8606 56.0334 37.1035 55.8822C41.9578 55.2775 46.2158 53.1863 49.7096 49.701C51.4481 47.9625 52.6574 46.2912 53.766 44.1076C55.3113 41.0506 56 38.0691 56 34.4998C56 30.9305 55.3113 27.949 53.766 24.892C52.6574 22.7084 51.4481 21.0371 49.7096 19.2986C46.2158 15.8133 41.9578 13.7221 37.1035 13.1174C35.911 12.9746 32.9379 12.9746 31.7705 13.1258ZM36.2217 14.8475C43.0832 15.4689 49.1133 19.6094 52.1787 25.8074C54.4799 30.4518 54.8494 35.6924 53.2201 40.6727C51.2969 46.5516 46.5518 51.2967 40.6729 53.2199C35.6926 54.8492 30.452 54.4797 25.8076 52.1785C18.4926 48.5588 14.117 40.8238 14.8477 32.7781C15.4692 25.9166 19.6096 19.8865 25.8076 16.8211C29.0158 15.2254 32.7027 14.5283 36.2217 14.8475Z" fill="black"/>
<path d="M31.9721 17.4507C25.5809 18.4669 20.4578 22.6914 18.2658 28.7466C16.9473 32.3832 16.9473 36.616 18.2658 40.2525C20.0463 45.1908 23.8088 48.9533 28.7471 50.7337C32.3836 52.0523 36.6164 52.0523 40.2529 50.7337C45.1912 48.9533 48.9537 45.1908 50.7342 40.2525C52.0443 36.6244 52.0443 32.3748 50.7342 28.7466C48.769 23.3044 44.217 19.1556 38.716 17.7867C36.6416 17.266 33.9709 17.14 31.9721 17.4507ZM36.8096 19.2564C42.5709 20.1802 47.2824 24.1443 49.1049 29.6033C49.2813 30.1492 49.4576 30.6951 49.4828 30.8294C49.5416 31.0898 49.7012 31.0814 48.1895 30.8798C46.4762 30.6615 45.1912 30.2248 41.899 28.7886C38.4221 27.2685 37.0363 26.8738 34.8779 26.7982C32.5432 26.7142 31.0567 27.1005 27.4033 28.7214C23.7248 30.3591 22.4734 30.7455 19.9455 31.0058L19.4668 31.0562L19.5172 30.8294C19.7776 29.6537 20.7266 27.4281 21.4404 26.3111C22.675 24.3794 24.5227 22.5486 26.3787 21.4064C28.5119 20.1046 30.6871 19.3824 33.3662 19.0968C33.9961 19.0296 35.9697 19.122 36.8096 19.2564ZM35.3147 28.5367C37.1623 28.7046 37.977 28.9566 41.3867 30.4431C45.0065 32.0304 46.7113 32.5343 49.0713 32.7191L49.8272 32.7779L49.9027 33.6177C49.9783 34.3904 49.8776 36.1541 49.7264 36.8679L49.6844 37.1031H45.6363C41.16 37.1031 41.0004 37.1199 39.9758 37.6406C38.5984 38.346 37.6326 39.5638 37.2295 41.0923C37.1287 41.5039 37.1035 42.2345 37.1035 45.4259C37.1035 47.5759 37.1371 49.3564 37.1791 49.474C37.2547 49.6755 37.2547 49.6755 36.4904 49.7931C35.4994 49.9443 33.5006 49.9443 32.5096 49.7931C31.7453 49.6755 31.7453 49.6755 31.8209 49.474C31.8629 49.3564 31.8965 47.5591 31.8965 45.3923C31.8965 41.7474 31.8881 41.4703 31.7285 40.8992C31.4514 39.9166 31.107 39.3203 30.3848 38.5896C29.8641 38.0689 29.5953 37.8757 29.0326 37.6154C28.6463 37.439 28.1256 37.2459 27.882 37.1955C27.5965 37.1367 26.0176 37.1031 23.3805 37.1031H19.3156L19.2233 36.574C19.0889 35.7929 19.0217 34.13 19.1057 33.4078L19.1729 32.7779L19.5088 32.7611C21.2137 32.6519 22.9018 32.3244 24.4639 31.7953C25.0182 31.6105 26.4963 31.0058 27.7393 30.4515C30.9055 29.0406 31.9973 28.6794 33.5594 28.5451C33.9625 28.5031 34.3068 28.4695 34.332 28.4611C34.3572 28.4611 34.794 28.4947 35.3147 28.5367ZM27.4621 38.8751C28.4195 39.0767 29.3518 39.7654 29.7633 40.5632C30.2 41.4115 30.2168 41.6466 30.2168 45.6023C30.2168 47.8699 30.1832 49.2808 30.1328 49.2808C30.0908 49.2808 29.7045 49.1548 29.2762 48.9953C26.1016 47.8447 23.2881 45.5855 21.4404 42.688C20.8274 41.7306 19.7188 39.2615 19.7188 38.8667C19.7188 38.7408 26.8994 38.7576 27.4621 38.8751ZM49.2813 38.8667C49.2813 38.9087 49.1553 39.2951 48.9957 39.7234C47.442 44.015 43.9986 47.45 39.7238 48.9953C39.2955 49.1548 38.9092 49.2808 38.8672 49.2808C38.8168 49.2808 38.7832 47.8867 38.7832 45.6443C38.7832 41.7306 38.8084 41.4955 39.2367 40.6472C39.6483 39.841 40.7065 39.0431 41.5883 38.8667C42.0838 38.7744 49.2813 38.766 49.2813 38.8667Z" fill="black"/>
<path d="M33.5762 30.3089C32.4424 30.5272 31.2246 31.4931 30.6703 32.6101C29.1502 35.6923 31.7201 39.2196 35.1383 38.7241C37.977 38.3126 39.6063 35.1884 38.3297 32.6101C37.4647 30.8632 35.533 29.931 33.5762 30.3089ZM35.5582 32.1901C37.1623 32.904 37.557 35.054 36.3057 36.3054C34.71 37.9011 31.9553 36.7589 31.9553 34.4997C31.9553 32.6269 33.8365 31.4175 35.5582 32.1901Z" fill="black"/>
</g>
<defs>
<clipPath id="clip0_110_192">
<rect width="43" height="43" fill="white" transform="translate(13 13)"/>
</clipPath>
</defs>
</svg>
