<svg width="30" height="30" viewBox="0 0 30 30" fill="none" xmlns="http://www.w3.org/2000/svg">
<rect width="30" height="30" rx="15" fill="url(#paint0_linear_90_106)"/>
<path fill-rule="evenodd" clip-rule="evenodd" d="M6.79008 14.8419C11.1629 12.9368 14.0788 11.6808 15.5377 11.0739C19.7034 9.3413 20.569 9.04032 21.1332 9.03038C21.2573 9.02819 21.5347 9.05895 21.7144 9.20477C21.8662 9.32791 21.9079 9.49425 21.9279 9.61099C21.9479 9.72774 21.9728 9.99369 21.953 10.2015C21.7273 12.5733 20.7505 18.3292 20.2536 20.9857C20.0433 22.1098 19.6293 22.4867 19.2285 22.5236C18.3574 22.6037 17.6959 21.9479 16.8522 21.3949C15.532 20.5295 14.7862 19.9907 13.5047 19.1463C12.0238 18.1703 12.9838 17.6339 13.8278 16.7573C14.0487 16.5279 17.8867 13.037 17.961 12.7203C17.9703 12.6807 17.9789 12.533 17.8912 12.4551C17.8035 12.3771 17.674 12.4038 17.5806 12.425C17.4482 12.455 15.3392 13.849 11.2535 16.607C10.6549 17.018 10.1126 17.2183 9.62682 17.2078C9.09125 17.1962 8.06101 16.905 7.29514 16.656C6.35576 16.3507 5.60916 16.1892 5.67417 15.6707C5.70804 15.4005 6.08 15.1243 6.79008 14.8419Z" fill="white"/>
<defs>
<linearGradient id="paint0_linear_90_106" x1="15" y1="0" x2="15" y2="29.7775" gradientUnits="userSpaceOnUse">
<stop stop-color="#2AABEE"/>
<stop offset="1" stop-color="#229ED9"/>
</linearGradient>
</defs>
</svg>
