<svg width="84" height="84" viewBox="0 0 84 84" fill="none" xmlns="http://www.w3.org/2000/svg">
<circle cx="42" cy="42" r="41.5" fill="#FFCA18" stroke="#FFCA18"/>
<path d="M29.8983 16.9725C28.0087 17.5052 24.9643 19.8488 23.0747 22.299C21.0801 24.6426 17.9307 28.2646 15.9361 30.1821C12.3669 33.8041 12.3669 33.9107 14.2565 36.0412L16.2511 38.2784L20.1353 33.9107C24.7543 28.7973 25.8041 28.9038 33.3626 36.3608L38.9264 41.7938L30.5281 50.5292C25.9091 55.323 22.1299 60.0103 22.1299 60.8625C22.1299 62.9931 24.9643 65.8694 27.0639 65.8694C28.0087 65.8694 32.1028 62.567 36.092 58.4124L43.4405 51.0619L48.6894 55.5361C51.5238 57.9863 54.9881 61.8213 56.3528 64.0584C57.8225 66.189 59.5022 68 60.237 68C61.9167 68 68.3203 61.5017 68.3203 59.7973C68.3203 59.1581 66.0108 56.921 63.0714 54.7904C60.237 52.6598 57.8225 50.5292 57.8225 49.9966C57.8225 49.4639 56.3528 47.4399 54.5682 45.6289L51.2089 42.3265L54.1483 39.2371C56.2478 37.1065 57.9275 36.2543 60.5519 36.3608C65.066 36.4674 69.0552 32.8454 69.5801 27.945L70 24.323L67.1656 27.0928C64.7511 29.4364 63.8063 29.756 61.3918 28.9038C57.0877 27.4124 56.3528 23.4708 59.7121 19.7423C62.3366 16.9725 62.3366 16.866 60.132 16.866C54.3582 16.866 49.7392 21.7663 50.684 26.8797C51.1039 28.9038 50.2641 30.3952 47.1147 33.5911L43.0206 37.6392L37.2468 31.567C29.5833 23.4708 29.5833 18.0378 37.3517 17.8247C40.0812 17.8247 40.1861 17.6117 38.4015 16.866C35.7771 15.6942 33.9924 15.6942 29.8983 16.9725ZM38.9264 34.4433C41.9708 37.6392 44.2803 40.622 43.8604 41.0481C43.0206 41.7938 31.5779 30.9278 31.5779 29.4364C31.5779 27.5189 33.4675 28.9038 38.9264 34.4433ZM45.3301 43.8179C43.6504 45.5223 42.6006 43.8179 44.2803 41.7938C45.2251 40.622 45.855 40.5155 46.0649 41.3677C46.2749 42.0069 45.96 43.1787 45.3301 43.8179ZM55.198 49.2509C58.0325 52.3402 61.7067 55.7491 63.3864 56.8144C66.4307 58.732 66.9556 60.4364 65.066 62.354C64.3312 63.0997 61.3918 60.756 55.0931 54.3643C47.0097 46.055 45.4351 43.4983 48.6894 43.4983C49.3193 43.4983 52.2587 46.055 55.198 49.2509ZM28.2186 61.2887C27.7987 63.6323 25.9091 63.4192 25.4892 61.1821C25.2792 60.1168 25.8041 59.4777 26.8539 59.4777C27.9037 59.4777 28.4286 60.2234 28.2186 61.2887Z" fill="black"/>
</svg>
