<svg width="68" height="68" viewBox="0 0 68 68" fill="none" xmlns="http://www.w3.org/2000/svg">
<circle cx="34" cy="34" r="34" fill="#FEEB10"/>
<path d="M53.8232 46.054L41.7086 33.9503L51.1589 24.5018C51.2331 24.4294 51.2866 24.3385 51.3141 24.2385L53.9765 14.8044C54.006 14.7006 54.0072 14.5908 53.9801 14.4864C53.9529 14.3819 53.8983 14.2866 53.822 14.2103C53.7457 14.134 53.6504 14.0794 53.546 14.0523C53.4415 14.0251 53.3317 14.0263 53.2279 14.0558L43.7758 16.7237C43.6769 16.7523 43.5869 16.8057 43.5143 16.8788L34.0694 26.3183L21.917 14.1803C21.8033 14.0667 21.6492 14.0029 21.4886 14.0029C21.3279 14.0029 21.1738 14.0667 21.0602 14.1803L14.1803 21.0565C14.0672 21.1704 14.0037 21.3244 14.0037 21.4849C14.0037 21.6454 14.0672 21.7994 14.1803 21.9133L26.331 34.0549L18.2534 42.1235C17.9503 41.7717 17.4759 41.3298 17.0376 41.7627C16.5993 42.1956 17.0376 42.6754 17.3984 42.9749L14.8009 45.567C14.2888 46.0821 14.0013 46.7789 14.0013 47.5052C14.0013 48.2315 14.2888 48.9283 14.8009 49.4434L18.5618 53.1918C19.0774 53.7051 19.7753 53.9933 20.5028 53.9933C21.2303 53.9933 21.9282 53.7051 22.4437 53.1918L25.0376 50.6015C25.328 50.9496 25.7988 51.3356 26.2137 50.919C26.6286 50.5023 26.2444 50.0333 25.8926 49.7447L33.9612 41.6815L46.0757 53.7853C46.1894 53.8988 46.3435 53.9626 46.5041 53.9626C46.6648 53.9626 46.8189 53.8988 46.9325 53.7853L53.8196 46.9054C53.9303 46.7916 53.9925 46.6392 53.9932 46.4805C53.9939 46.3217 53.9329 46.1688 53.8232 46.054ZM52.5154 15.5169L50.4266 22.9126L45.1035 17.6076L52.5154 15.5169ZM15.4611 21.484L21.4895 15.4628L23.8218 17.788L21.6175 19.9958C21.5612 20.0523 21.5165 20.1194 21.486 20.1932C21.4555 20.2669 21.4399 20.346 21.44 20.4258C21.4401 20.5056 21.4559 20.5846 21.4865 20.6583C21.5171 20.732 21.5619 20.799 21.6184 20.8554C21.6749 20.9118 21.742 20.9565 21.8158 20.9869C21.8895 21.0174 21.9686 21.033 22.0484 21.0329C22.1282 21.0329 22.2072 21.0171 22.2809 20.9864C22.3546 20.9558 22.4216 20.911 22.478 20.8545L24.6786 18.6502L27.0128 20.9807L23.1995 24.8013C23.1407 24.8569 23.0937 24.9238 23.0612 24.998C23.0286 25.0722 23.0113 25.1521 23.0102 25.2331C23.0091 25.3141 23.0243 25.3944 23.0547 25.4695C23.0852 25.5445 23.1304 25.6126 23.1877 25.6699C23.245 25.7272 23.3131 25.7724 23.3881 25.8028C23.4632 25.8333 23.5435 25.8485 23.6245 25.8474C23.7055 25.8463 23.7854 25.8289 23.8596 25.7964C23.9337 25.7639 24.0006 25.7169 24.0563 25.6581L27.8696 21.8376L30.202 24.1681L27.9959 26.3724C27.8823 26.4863 27.8185 26.6406 27.8187 26.8014C27.8189 26.9623 27.8829 27.1165 27.9968 27.2301C28.1107 27.3437 28.265 27.4075 28.4258 27.4073C28.5867 27.4071 28.7409 27.3431 28.8545 27.2292L31.0606 25.0249L33.2108 27.1679L27.1842 33.1981L15.4611 21.484ZM43.9436 18.1632L46.4816 20.6885L21.6464 45.5093L19.1102 42.9839L43.9436 18.1632ZM21.5905 52.3404C21.3024 52.6255 20.9135 52.7854 20.5082 52.7854C20.1029 52.7854 19.714 52.6255 19.4259 52.3404L15.6595 48.592C15.3735 48.3044 15.213 47.9153 15.213 47.5097C15.213 47.1041 15.3735 46.715 15.6595 46.4274L18.257 43.8317L24.1844 49.7465L21.5905 52.3404ZM25.0394 48.8933L22.505 46.3679L47.3384 21.5508L49.8638 24.0761L25.0394 48.8933ZM46.505 52.5009L34.8198 40.8265L40.8464 34.8035L42.9605 36.9158L39.1382 40.7363C39.0246 40.8502 38.9608 41.0045 38.961 41.1654C38.9612 41.3262 39.0252 41.4804 39.1391 41.594C39.2529 41.7077 39.4073 41.7714 39.5681 41.7712C39.729 41.7711 39.8832 41.707 39.9968 41.5931L43.8191 37.7726L46.1515 40.1032L43.9436 42.3093C43.83 42.4231 43.7662 42.5775 43.7664 42.7383C43.7666 42.8992 43.8306 43.0534 43.9445 43.167C44.0584 43.2806 44.2127 43.3443 44.3735 43.3442C44.5344 43.344 44.6886 43.2799 44.8022 43.1661L47.0101 40.9636L49.3425 43.2942L45.5219 47.1147C45.4181 47.23 45.3625 47.3807 45.3664 47.5358C45.3704 47.6909 45.4337 47.8386 45.5433 47.9484C45.6529 48.0582 45.8004 48.1218 45.9555 48.1261C46.1106 48.1304 46.2614 48.0751 46.377 47.9715L50.2011 44.151L52.5334 46.4815L46.505 52.5009Z" fill="black"/>
</svg>
