<svg width="31" height="31" viewBox="0 0 31 31" fill="none" xmlns="http://www.w3.org/2000/svg">
<path fill-rule="evenodd" clip-rule="evenodd" d="M0 15.015C0 6.72246 6.79047 0 15.1669 0C23.5434 0 30.3339 6.72246 30.3339 15.015C30.3339 23.3076 23.5434 30.03 15.1669 30.03C6.79047 30.03 0 23.3076 0 15.015Z" fill="#4C6C91"/>
<path fill-rule="evenodd" clip-rule="evenodd" d="M15.9603 19.9422C15.9603 19.9422 16.2522 19.9107 16.4018 19.7546C16.5387 19.6116 16.5339 19.3417 16.5339 19.3417C16.5339 19.3417 16.5157 18.0814 17.1179 17.8953C17.7113 17.7123 18.4733 19.1141 19.282 19.6531C19.8929 20.0606 20.3565 19.9714 20.3565 19.9714L22.5175 19.9422C22.5175 19.9422 23.6474 19.8746 23.1117 19.0111C23.0674 18.9403 22.7992 18.3721 21.5055 17.2048C20.15 15.983 20.332 16.1806 21.9636 14.0668C22.9575 12.7797 23.3547 11.9938 23.2304 11.6578C23.1125 11.3364 22.3814 11.4217 22.3814 11.4217L19.949 11.4363C19.949 11.4363 19.7686 11.4125 19.6349 11.4902C19.5044 11.5663 19.4197 11.7439 19.4197 11.7439C19.4197 11.7439 19.0351 12.7397 18.5216 13.587C17.4383 15.374 17.0055 15.4686 16.8283 15.3579C16.416 15.0987 16.5189 14.3183 16.5189 13.7639C16.5189 12.0315 16.7895 11.3095 15.9927 11.1226C15.7284 11.0603 15.5338 11.0196 14.8572 11.0127C13.9892 11.0042 13.2549 11.0157 12.8387 11.2134C12.5617 11.3448 12.3481 11.6386 12.4787 11.6555C12.6393 11.6763 13.0033 11.7508 13.1963 12.0061C13.4456 12.336 13.4369 13.0757 13.4369 13.0757C13.4369 13.0757 13.5801 15.1149 13.1022 15.3679C12.7746 15.5417 12.3252 15.1872 11.359 13.5655C10.8645 12.7351 10.491 11.817 10.491 11.817C10.491 11.817 10.419 11.6455 10.29 11.5532C10.1341 11.4417 9.91653 11.4071 9.91653 11.4071L7.60523 11.4217C7.60523 11.4217 7.25786 11.431 7.13047 11.5778C7.01732 11.7078 7.12177 11.9777 7.12177 11.9777C7.12177 11.9777 8.9314 16.0922 10.9808 18.166C12.8601 20.0668 14.9933 19.9422 14.9933 19.9422H15.9603Z" fill="white"/>
</svg>
