<svg width="30" height="30" viewBox="0 0 30 30" fill="none" xmlns="http://www.w3.org/2000/svg">
<rect width="30" height="30" rx="15" fill="url(#paint0_linear_90_105)"/>
<path d="M5.90125 23.7268L7.18741 19.0564C6.39225 17.6855 5.97511 16.133 5.97946 14.5459C5.97946 9.57271 10.0465 5.5293 15.0391 5.5293C17.4637 5.5293 19.7406 6.46772 21.4482 8.17157C23.1602 9.87543 24.1031 12.1415 24.0988 14.5502C24.0988 19.5234 20.0317 23.5668 15.0348 23.5668H15.0304C13.514 23.5668 12.0236 23.1863 10.6983 22.4684L5.90125 23.7268ZM10.9286 20.8381L11.2023 21.0024C12.3582 21.6857 13.6834 22.0446 15.0348 22.0489H15.0391C19.1887 22.0489 22.5693 18.6888 22.5693 14.5546C22.5693 12.5523 21.7871 10.6711 20.3663 9.2527C18.9454 7.83426 17.0509 7.05585 15.0391 7.05585C10.8895 7.05152 7.50895 10.4117 7.50895 14.5459C7.50895 15.96 7.90436 17.3395 8.66042 18.5331L8.83857 18.8185L8.07817 21.5819L10.9286 20.8381Z" fill="white"/>
<path d="M6.21844 23.4109L7.46116 18.9004C6.69207 17.5815 6.28797 16.0808 6.28797 14.55C6.29231 9.74976 10.216 5.84473 15.0391 5.84473C17.3812 5.84473 19.5755 6.75287 21.2266 8.39619C22.8778 10.0395 23.7859 12.2277 23.7859 14.5543C23.7859 19.3545 19.8579 23.2595 15.0391 23.2595H15.0348C13.5705 23.2595 12.1322 22.892 10.8547 22.2L6.21844 23.4109Z" fill="url(#paint1_linear_90_105)"/>
<path d="M5.90125 23.7268L7.18741 19.0564C6.39225 17.6855 5.97511 16.133 5.97946 14.5459C5.97946 9.57271 10.0465 5.5293 15.0391 5.5293C17.4637 5.5293 19.7406 6.46772 21.4482 8.17157C23.1602 9.87543 24.1031 12.1415 24.0988 14.5502C24.0988 19.5234 20.0317 23.5668 15.0348 23.5668H15.0304C13.514 23.5668 12.0236 23.1863 10.6983 22.4684L5.90125 23.7268ZM10.9286 20.8381L11.2023 21.0024C12.3582 21.6857 13.6834 22.0446 15.0348 22.0489H15.0391C19.1887 22.0489 22.5693 18.6888 22.5693 14.5546C22.5693 12.5523 21.7871 10.6711 20.3663 9.2527C18.9454 7.83426 17.0509 7.05585 15.0391 7.05585C10.8895 7.05152 7.50895 10.4117 7.50895 14.5459C7.50895 15.96 7.90436 17.3395 8.66042 18.5331L8.83857 18.8185L8.07817 21.5819L10.9286 20.8381Z" fill="url(#paint2_linear_90_105)"/>
<path fill-rule="evenodd" clip-rule="evenodd" d="M12.7752 10.7754C12.6057 10.3991 12.4276 10.3905 12.2668 10.3862C12.1365 10.3818 11.9844 10.3818 11.8323 10.3818C11.6802 10.3818 11.4369 10.4381 11.2283 10.6629C11.0198 10.8878 10.4375 11.4327 10.4375 12.5441C10.4375 13.6512 11.25 14.7236 11.363 14.875C11.476 15.0264 12.9316 17.3746 15.2302 18.2784C17.1421 19.0309 17.5331 18.8795 17.9459 18.8406C18.3587 18.8017 19.2842 18.2957 19.4754 17.7681C19.6623 17.2405 19.6623 16.7908 19.6058 16.6956C19.5493 16.6005 19.3972 16.5443 19.1713 16.4318C18.9453 16.3194 17.833 15.7745 17.6244 15.6967C17.4158 15.6231 17.2637 15.5842 17.116 15.8091C16.9639 16.034 16.5294 16.5399 16.3991 16.6913C16.2687 16.8427 16.134 16.86 15.9081 16.7475C15.6821 16.6351 14.9521 16.3972 14.0874 15.6275C13.4139 15.0307 12.9577 14.2912 12.8273 14.0663C12.697 13.8414 12.8143 13.7204 12.9273 13.6079C13.0272 13.5085 13.1532 13.3441 13.2662 13.2144C13.3792 13.0847 13.4183 12.9895 13.4921 12.8382C13.566 12.6868 13.5313 12.5571 13.4748 12.4446C13.4183 12.3365 12.9751 11.2208 12.7752 10.7754Z" fill="white"/>
<defs>
<linearGradient id="paint0_linear_90_105" x1="14.9992" y1="29.9985" x2="14.9992" y2="-0.00104962" gradientUnits="userSpaceOnUse">
<stop stop-color="#20B038"/>
<stop offset="1" stop-color="#60D66A"/>
</linearGradient>
<linearGradient id="paint1_linear_90_105" x1="15.0017" y1="23.41" x2="15.0017" y2="5.84411" gradientUnits="userSpaceOnUse">
<stop stop-color="#20B038"/>
<stop offset="1" stop-color="#60D66A"/>
</linearGradient>
<linearGradient id="paint2_linear_90_105" x1="15.0018" y1="23.7251" x2="15.0018" y2="5.5293" gradientUnits="userSpaceOnUse">
<stop stop-color="#F9F9F9"/>
<stop offset="1" stop-color="white"/>
</linearGradient>
</defs>
</svg>
